<svg xmlns="http://www.w3.org/2000/svg" viewBox="0 0 500 500"><g id="freepik--Floor--inject-2"><path id="freepik--floor--inject-2" d="M79.8,246.36c-94,54.26-94,142.25,0,196.52s246.39,54.27,340.39,0,94-142.26,0-196.52S173.8,192.09,79.8,246.36Z" style="fill:#fafafa"></path></g><g id="freepik--Shadows--inject-2"><ellipse id="freepik--Shadow--inject-2" cx="416.9" cy="368.83" rx="54.08" ry="31.22" style="fill:#e0e0e0"></ellipse><ellipse id="freepik--shadow--inject-2" cx="89.26" cy="406.02" rx="27.15" ry="15.68" style="fill:#e0e0e0"></ellipse><path id="freepik--shadow--inject-2" d="M259,339,115.59,421.77c-1.68,1-1.68,2.54,0,3.51L138,438.2a6.69,6.69,0,0,0,6.07,0l143.4-82.74c1.68-1,1.68-2.54,0-3.51L265.06,339A6.72,6.72,0,0,0,259,339Z" style="fill:#e0e0e0"></path><path id="freepik--shadow--inject-2" d="M325.61,443.05a4.31,4.31,0,0,1-4.18-3.46l-.71-3.73c-1.63-.32-3.22-.72-4.75-1.18L308.72,438a5.11,5.11,0,0,1-4.53-.21l-7.43-4.28a3.68,3.68,0,0,1-.31-6.27l3.89-2.8c-.18-.27-.36-.54-.53-.82l-9.06-.57a4.14,4.14,0,0,1-3.87-4.12v-5.52a4.13,4.13,0,0,1,3.87-4.11l9.06-.58c.17-.27.35-.54.53-.81l-3.89-2.8a3.76,3.76,0,0,1-1.6-3.23,3.72,3.72,0,0,1,1.92-3l7.42-4.29a5.06,5.06,0,0,1,2.48-.64,4.8,4.8,0,0,1,2.05.44l7.25,3.36a47.09,47.09,0,0,1,4.75-1.18l.71-3.73a4.33,4.33,0,0,1,4.18-3.47h10.92a4.31,4.31,0,0,1,4.18,3.47l.71,3.73a45.78,45.78,0,0,1,4.75,1.18l7.26-3.36a4.73,4.73,0,0,1,2-.44,5.09,5.09,0,0,1,2.49.64l7.42,4.29a3.69,3.69,0,0,1,.32,6.27l-3.9,2.8c.19.27.36.54.53.81l9.07.57a4.13,4.13,0,0,1,3.86,4.12V419a4.13,4.13,0,0,1-3.86,4.12l-9.07.57c-.17.28-.34.55-.53.81l3.89,2.8a3.69,3.69,0,0,1-.31,6.28L358,437.83a5,5,0,0,1-2.49.64h0a4.94,4.94,0,0,1-2-.43l-7.26-3.36a48.48,48.48,0,0,1-4.75,1.18l-.71,3.73a4.31,4.31,0,0,1-4.18,3.46Zm5.46-33.94a22.66,22.66,0,0,0-11,2.58c-2.3,1.33-3.62,3-3.62,4.52s1.32,3.19,3.62,4.52a24.61,24.61,0,0,0,21.94,0c2.31-1.33,3.63-3,3.63-4.52s-1.32-3.19-3.63-4.52A22.63,22.63,0,0,0,331.07,409.11Z" style="fill:#e0e0e0"></path><path id="freepik--shadow--inject-2" d="M254.79,467l-.55,0-7.59-.8a5,5,0,0,1-4.48-5.6l.15-1.18c-.65-.23-1.28-.48-1.88-.74,0,0,0,0,0,0h-.08l-5.77,1.8a5.62,5.62,0,0,1-1.75.26,6.47,6.47,0,0,1-4.06-1.4l-3.87-3.23a4.52,4.52,0,0,1,.87-7.63l1.32-.66-3.56-.61a4.84,4.84,0,0,1-3.84-6.27l1.05-3.36a5.62,5.62,0,0,1,5.23-3.83l6.46.26-.83-.88a4.54,4.54,0,0,1,1.65-7.46l6.07-2.44a6.27,6.27,0,0,1,2.27-.42,6.46,6.46,0,0,1,3.53,1l3.94,2.61h0c1.14-.19,2.3-.35,3.46-.45l1.17-2.29a5.86,5.86,0,0,1,5.1-3.08,5.07,5.07,0,0,1,.55,0l7.59.79a5,5,0,0,1,4.47,5.61l-.14,1.17c.64.24,1.27.49,1.88.75,0,0,0,0,0,0h.09l5.76-1.81a5.93,5.93,0,0,1,1.75-.26,6.42,6.42,0,0,1,4.06,1.41l3.88,3.23a4.5,4.5,0,0,1-.89,7.62l-1.31.66,3.56.61a4.85,4.85,0,0,1,3.84,6.27l-1.05,3.36a5.6,5.6,0,0,1-5.23,3.83l-6.46-.26.84.89a4.55,4.55,0,0,1-1.65,7.46l-6.08,2.43a6,6,0,0,1-2.27.42,6.48,6.48,0,0,1-3.53-1l-3.94-2.62h0c-1.13.2-2.29.35-3.46.46l-1.17,2.28A5.86,5.86,0,0,1,254.79,467Zm2-27.87a18.81,18.81,0,0,0-6.88,1.23c-2.67,1.07-3.77,2.43-3.9,3.27s.72,1.68,1.24,2.11c2,1.7,5.7,2.75,9.57,2.75a18.81,18.81,0,0,0,6.88-1.23c2.67-1.07,3.77-2.43,3.9-3.27s-.72-1.68-1.24-2.11C264.33,440.2,260.66,439.14,256.79,439.14Z" style="fill:#e0e0e0"></path></g><g id="freepik--frames-2--inject-2"><g id="freepik--Frame--inject-2"><path d="M337,95.86h-1V94.38a1.77,1.77,0,0,0,0-.23L336,94l0-.06,0-.09a.52.52,0,0,0-.06-.13l-.19-.23a.68.68,0,0,0-.53-.09l-.16-1a1.65,1.65,0,0,1,1,.12,1.28,1.28,0,0,1,.27.16,1.21,1.21,0,0,1,.2.19l.1.13a.51.51,0,0,1,.12.18,1.28,1.28,0,0,1,.16.36.56.56,0,0,1,0,.18l.08.15,0,.08s0,.07,0,.11,0,.21,0,.31Z" style="fill:#6895C8"></path><path d="M286.07,202.13a1.81,1.81,0,0,1-.38,0,1.16,1.16,0,0,1-.28-.1,1.64,1.64,0,0,1-.22-.12,2.26,2.26,0,0,1-.75-.91,3,3,0,0,1-.28-1.29V198.6h1v1.06a2.1,2.1,0,0,0,.17.85,1.34,1.34,0,0,0,.37.51.88.88,0,0,0,.12.07l.11,0a.53.53,0,0,0,.16,0l.11,1Zm3.71-1.86-.49-.85,3.33-1.92.48.84Zm6.65-3.85-.49-.84,3.33-1.92.49.84Zm-11.29-1.66h-1v-3.84h1Zm17.94-2.18-.48-.84,3.32-1.92.49.84Zm6.65-3.84-.48-.85,3.32-1.92.49.84Zm-24.59-1.66h-1v-3.85h1Zm31.25-2.19-.49-.84,3.33-1.92.48.84Zm6.65-3.84-.49-.84,3.33-1.92.48.84Zm-37.9-1.66h-1v-3.84h1Zm44.55-2.18-.49-.85,3.33-1.92.49.84Zm6.5-4.39-.81-.53a4,4,0,0,0,.68-2.06v-1.36h1v1.36A4.94,4.94,0,0,1,336.19,172.82Zm-51.05-1.11h-1v-3.84h1ZM337,165h-1v-3.84h1Zm-51.9-1h-1v-3.84h1Zm51.9-6.69h-1V153.5h1Zm-51.9-1h-1V152.5h1Zm51.9-6.69h-1v-3.84h1Zm-51.9-1h-1v-3.84h1ZM337,142h-1v-3.84h1Zm-51.9-1h-1v-3.84h1ZM337,134.3h-1v-3.84h1Zm-51.9-1h-1v-3.84h1Zm51.9-6.69h-1v-3.84h1Zm-51.9-1h-1v-1.28a5,5,0,0,1,.89-2.66l.81.54a4.08,4.08,0,0,0-.72,2.12Zm3.59-5.53-.48-.84,3.33-1.92.48.84ZM337,118.93h-1v-3.84h1Zm-41.65-2.69-.49-.84,3.33-1.92.49.84ZM302,112.4l-.48-.84,3.32-1.92.49.84Zm35-1.15h-1v-3.84h1Zm-28.34-2.69-.49-.84,3.33-1.92.48.84Zm6.65-3.84-.48-.84,3.32-1.92.49.84ZM337,103.57h-1V99.72h1Zm-15-2.69-.49-.84,3.33-1.92.48.84ZM328.66,97l-.49-.84,3.33-1.92.49.84Z" style="fill:#6895C8"></path></g><g id="freepik--frame--inject-2"><path d="M89.75,288.11h-1v-1.48a1.55,1.55,0,0,0,0-.22l-.06-.19,0-.05,0-.1-.07-.14-.21-.25a.84.84,0,0,0-.5-.07l-.16-.95a1.58,1.58,0,0,1,1,.12l.27.15.2.19.11.14a1,1,0,0,1,.11.18,1.22,1.22,0,0,1,.16.37.59.59,0,0,1,0,.15l.08.15,0,.1s0,.07,0,.11,0,.21,0,.31Z" style="fill:#6895C8"></path><path d="M38.76,394.37a1.65,1.65,0,0,1-.36,0,1.45,1.45,0,0,1-.29-.11.86.86,0,0,1-.21-.11,2.33,2.33,0,0,1-.75-.91,3,3,0,0,1-.28-1.29v-1.06h1v1.06a2.14,2.14,0,0,0,.17.85,1.61,1.61,0,0,0,.36.51l.13.07.11,0,.16,0,.11,1h-.13Zm3.73-1.86-.49-.84,3.33-1.92.48.84Zm6.65-3.84-.49-.84L52,385.91l.48.84ZM37.85,387h-1v-3.85h1Zm17.94-2.18L55.3,384l3.33-1.92.49.84ZM62.44,381l-.48-.84,3.32-1.92.49.84Zm-24.59-1.66h-1v-3.84h1Zm31.24-2.18-.48-.84,3.32-1.92.49.84Zm6.66-3.84-.49-.85,3.33-1.92.48.84Zm-37.9-1.66h-1V367.8h1Zm44.55-2.19-.49-.84,3.33-1.92.49.84Zm6.5-4.38-.82-.53a4,4,0,0,0,.69-2.07v-1.35h1v1.35A5,5,0,0,1,88.9,365.07ZM37.85,364h-1v-3.84h1Zm51.9-6.69h-1v-3.84h1Zm-51.9-1h-1v-3.84h1Zm51.9-6.68h-1v-3.84h1Zm-51.9-1h-1v-3.84h1Zm51.9-6.68h-1v-3.84h1Zm-51.9-1h-1v-3.84h1Zm51.9-6.68h-1v-3.84h1Zm-51.9-1h-1v-3.84h1Zm51.9-6.69h-1V322.7h1Zm-51.9-1h-1V321.7h1Zm51.9-6.68h-1V315h1Zm-51.9-1h-1v-1.28a5,5,0,0,1,.89-2.66l.81.54a4.08,4.08,0,0,0-.72,2.12Zm3.59-5.53-.48-.85,3.32-1.92.49.85Zm48.31-1.15h-1v-3.84h1ZM48.1,308.49l-.49-.85,3.33-1.92.48.85Zm6.65-3.84-.48-.85,3.32-1.92.49.85Zm35-1.15h-1v-3.85h1Zm-28.34-2.69-.49-.85L64.25,298l.48.85ZM68.06,297l-.49-.85,3.33-1.92.49.85Zm21.69-1.16h-1V292h1Zm-15-2.68-.48-.85,3.33-1.92.48.85Zm6.66-3.84-.49-.85,3.33-1.92.49.85Z" style="fill:#6895C8"></path></g></g><g id="freepik--magnifying-glass--inject-2"><g id="freepik--magnifying-glass--inject-2"><path d="M78.33,398.94a.66.66,0,0,0,0-.14l3.09-81.61h0A3.82,3.82,0,0,1,83.71,314a12.21,12.21,0,0,1,11.07.15,4,4,0,0,1,2.29,3.24h0l3.11,81.69a.57.57,0,0,1,0,.13c0,.07,0,.14,0,.22a10.77,10.77,0,0,1-10.93,10.81,11.13,11.13,0,0,1-10.94-11.11C78.32,399.08,78.33,399,78.33,398.94Z" style="fill:#37474f"></path><path d="M94.78,314.17c3.06,1.81,3.06,4.68,0,6.41a12.21,12.21,0,0,1-11.07-.15c-3.06-1.82-3.06-4.68,0-6.41A12.21,12.21,0,0,1,94.78,314.17Z" style="fill:#263238"></path><path d="M93.29,396.19l-1.76-74.53a10,10,0,0,0,3.25-1.08,3.84,3.84,0,0,0,2.3-3.15l3.1,81.67a.57.57,0,0,1,0,.13c0,.07,0,.14,0,.22a10.77,10.77,0,0,1-10.93,10.81C92.66,409.43,93.49,403.52,93.29,396.19Z" style="fill:#455a64"></path><path d="M85.9,293.7a7.34,7.34,0,0,1,6.69.09,2.39,2.39,0,0,1,1.39,2h0v21.61h0a2.31,2.31,0,0,1-1.39,1.92,7.37,7.37,0,0,1-6.69-.09,2.4,2.4,0,0,1-1.39-2V295.62h0A2.3,2.3,0,0,1,85.9,293.7Z" style="fill:#e0e0e0"></path><path d="M94,307.63v-8q-4.77,1.06-9.47,1.7v7.9C87.67,308.81,90.83,308.28,94,307.63Z" style="opacity:0.25"></path><path d="M138.83,179.58l-16-9.24c-9-5.17-21.34-4.42-35,3.47C60.46,189.6,38.29,228,38.29,259.6c0,15.79,5.54,26.88,14.51,32.06l16,9.22a25.44,25.44,0,0,0,12.9,3.29c6.66,0,14.17-2.17,22.12-6.76,27.35-15.79,49.53-54.2,49.53-85.78C153.32,195.85,147.78,184.76,138.83,179.58ZM116,247.29c-8.67,15-20.09,27.13-32.14,34.09C77.56,285,71.43,287,66.1,287.08c-2.59-4.58-4-10.77-4-18.26,0-13.92,4.78-29.86,13.45-44.88s20.09-27.13,32.14-34.09c6.32-3.65,12.46-5.62,17.8-5.71,2.57,4.6,4,10.78,4,18.27C129.47,216.32,124.7,232.26,116,247.29Z" style="fill:#6895C8"></path><path d="M51.23,213.57,74,226.73q.77-1.41,1.56-2.79a113.71,113.71,0,0,1,9-13.28L61.71,197.48A120.38,120.38,0,0,0,51.23,213.57Zm22.55-29.31q-3.45,3.17-6.68,6.76L90,204.26a91.14,91.14,0,0,1,6.88-6.65Z" style="fill:#fff;opacity:0.1"></path><path d="M68.71,300.84,52.8,291.66c-9-5.18-14.51-16.27-14.51-32.06,0-.61,0-1.22,0-1.83l16,9.22q0,.92,0,1.83C54.26,284.56,59.79,295.65,68.71,300.84Z" style="opacity:0.25"></path><path d="M125.91,184.13h-.39c2.57,4.6,4,10.78,4,18.27,0,13.91-4.77,29.85-13.45,44.88s-20.09,27.13-32.14,34.09C77.56,285,71.43,287,66.1,287.08a17,17,0,0,0,15.57,9.23c5.43,0,11.71-2,18.19-5.71,12-7,23.46-19.06,32.14-34.09s13.45-31,13.45-44.88C145.45,194.42,138.15,184.13,125.91,184.13Z" style="fill:#6895C8"></path><path d="M125.91,184.13h-.39c2.57,4.6,4,10.78,4,18.27,0,13.91-4.77,29.85-13.45,44.88s-20.09,27.13-32.14,34.09C77.56,285,71.43,287,66.1,287.08a17,17,0,0,0,15.57,9.23c5.43,0,11.71-2,18.19-5.71,12-7,23.46-19.06,32.14-34.09s13.45-31,13.45-44.88C145.45,194.42,138.15,184.13,125.91,184.13Z" style="opacity:0.25"></path><path d="M138,207.36c0,13.91-4.78,29.86-13.45,44.88s-20.1,27.13-32.15,34.09C86,290.06,79.66,292,74.24,292a19.19,19.19,0,0,1-4.88-.61h0a19.83,19.83,0,0,1-3.25-4.35c-2.59-4.58-4-10.77-4-18.26,0-13.92,4.78-29.86,13.45-44.88s20.09-27.13,32.14-34.09c6.32-3.65,12.46-5.62,17.8-5.71h.39a18.42,18.42,0,0,1,4.9.63C135.45,189.39,138,197.15,138,207.36Z" style="fill:#fff;opacity:0.30000000000000004"></path><path d="M103.79,183c-27.35,15.8-49.53,54.2-49.53,85.79s22.18,44.39,49.53,28.59,49.53-54.2,49.53-85.78S131.14,167.24,103.79,183ZM99.86,290.6c-6.48,3.73-12.76,5.71-18.19,5.71a17,17,0,0,1-15.57-9.23c-2.59-4.58-4-10.77-4-18.26,0-13.92,4.78-29.86,13.45-44.88s20.09-27.13,32.14-34.09c6.32-3.65,12.46-5.62,17.8-5.71h.39c12.24,0,19.54,10.29,19.54,27.5,0,13.91-4.77,29.86-13.45,44.88S111.91,283.64,99.86,290.6Z" style="fill:#6895C8"></path><g style="opacity:0.30000000000000004"><path d="M103.79,183c-27.35,15.8-49.53,54.2-49.53,85.79s22.18,44.39,49.53,28.59,49.53-54.2,49.53-85.78S131.14,167.24,103.79,183ZM99.86,290.6c-6.48,3.73-12.76,5.71-18.19,5.71a17,17,0,0,1-15.57-9.23c-2.59-4.58-4-10.77-4-18.26,0-13.92,4.78-29.86,13.45-44.88s20.09-27.13,32.14-34.09c6.32-3.65,12.46-5.62,17.8-5.71h.39c12.24,0,19.54,10.29,19.54,27.5,0,13.91-4.77,29.86-13.45,44.88S111.91,283.64,99.86,290.6Z" style="fill:#fff"></path></g><g style="opacity:0.30000000000000004"><path d="M66.28,224.54a114.61,114.61,0,0,0-10.06,28.14,79.78,79.78,0,0,0-1.69,14.85,55.3,55.3,0,0,0,1.63,14.79,32.87,32.87,0,0,0,6.57,13.21,23.75,23.75,0,0,0,12.44,7.67A31,31,0,0,0,89.94,303a53.39,53.39,0,0,0,13.85-5.57A53.45,53.45,0,0,1,90,303.26a31.29,31.29,0,0,1-14.93.32,24.21,24.21,0,0,1-12.72-7.73,33.33,33.33,0,0,1-6.76-13.38,56.23,56.23,0,0,1-1.55-15,81.41,81.41,0,0,1,1.79-14.92,104.78,104.78,0,0,1,4.23-14.41A120.63,120.63,0,0,1,66.28,224.54Z" style="fill:#fff"></path></g><g style="opacity:0.30000000000000004"><path d="M125.91,184.13a18.9,18.9,0,0,1,7.27,1.34,16.85,16.85,0,0,1,6,4.3,22.51,22.51,0,0,1,3.9,6.36,34,34,0,0,1,2.06,7.19,57.56,57.56,0,0,1,.42,14.89,82,82,0,0,1-2.77,14.65,95.69,95.69,0,0,1-5.11,14,115.24,115.24,0,0,1-7,13.17,102.64,102.64,0,0,1-19,22.92,72.16,72.16,0,0,1-12.19,8.69,42.27,42.27,0,0,1-14.12,5.1,23.21,23.21,0,0,1-7.62-.09,17,17,0,0,1-7-3.09A16.24,16.24,0,0,1,68,290.94a19.42,19.42,0,0,1-2.22-3.12,27.22,27.22,0,0,1-2.81-7,49.53,49.53,0,0,1-1.26-14.89A76.88,76.88,0,0,1,64,251.2a96.64,96.64,0,0,1,4.82-14,109.45,109.45,0,0,1,6.75-13.21,107.53,107.53,0,0,0-10.82,27.45A76.35,76.35,0,0,0,62.7,266a48.17,48.17,0,0,0,1.43,14.53,26.07,26.07,0,0,0,2.78,6.67,17.61,17.61,0,0,0,4.7,5.31,15.73,15.73,0,0,0,6.46,2.81,21.39,21.39,0,0,0,7.14,0,40.74,40.74,0,0,0,13.6-5,71.13,71.13,0,0,0,11.88-8.55,100.94,100.94,0,0,0,18.82-22.5,110.61,110.61,0,0,0,12.16-26.75,80.26,80.26,0,0,0,2.94-14.41,57.17,57.17,0,0,0-.19-14.67,32.52,32.52,0,0,0-1.85-7.08,21.88,21.88,0,0,0-3.66-6.31,16.62,16.62,0,0,0-5.83-4.37A18.91,18.91,0,0,0,125.91,184.13Z" style="fill:#fff"></path></g></g></g><g id="freepik--Device--inject-2"><g id="freepik--Mobile--inject-2"><path d="M275.42,347.68V59.75c0-7.41-3.68-9.45-6.95-11.34s-8.65-3-13.29-.35l-118.9,68.65c-4.64,2.68-8.41,9.2-8.41,14.56V419.21c0,5.36,3.36,8.52,6.63,10.41s9,3.95,13.61,1.27L267,362.25A15.84,15.84,0,0,0,275.42,347.68Z" style="fill:#37474f"></path><path d="M267.86,350.41,145.59,421l0-289.18L130.33,123a17.16,17.16,0,0,0-2.46,8.28V419.21c0,5.36,3.36,8.52,6.63,10.41s9,3.95,13.61,1.27L267,362.25a16.09,16.09,0,0,0,7.28-8.13l-.47-.27Z" style="fill:#263238"></path><path d="M266.79,57.26,147.55,126.11a13.06,13.06,0,0,0-5.9,10.21v285.6c0,5.75,4.09,8.11,9.07,5.22l116.07-67a14.84,14.84,0,0,0,6.69-11.59V61.12C273.48,56.87,270.47,55.14,266.79,57.26Z" style="fill:#455a64"></path><path d="M267.66,74.77v267a14.08,14.08,0,0,1-6.35,11l-107.5,62.06c-3.5,2-6.35.4-6.35-3.66V142.22a14.21,14.21,0,0,1,4.46-9.57c.2-.18.4-.37.6-.54a12.94,12.94,0,0,1,1.29-.89l30.24-17.45s.88-.52,2-1.14,2-.13,2,1.14.94,1.73,2.11,1l35.23-20.34A4.51,4.51,0,0,0,227.44,91a4.44,4.44,0,0,1,1.77-3.3l.2-.13L259,70.5l.63-.37C264.05,67.58,267.66,69.66,267.66,74.77Z"></path><path d="M252.08,345.62a14.05,14.05,0,0,0,6.35-11V70.82l-29,16.75-.2.13a4.44,4.44,0,0,0-1.77,3.3,4.51,4.51,0,0,1-2.11,3.48L190.1,114.82c-1.17.68-2.11.2-2.11-1s-.88-1.77-2-1.14-2,1.14-2,1.14l-30.24,17.45a12.94,12.94,0,0,0-1.29.89c-.2.17-.4.36-.6.54a14.21,14.21,0,0,0-4.46,9.57V406Z" style="fill:#263238"></path><path d="M195.45,104.08l16.15-9.33c1-.55,1.75-.16,1.75.89a3.74,3.74,0,0,1-1.75,2.89l-16.15,9.33c-1,.56-1.75.16-1.75-.88A3.73,3.73,0,0,1,195.45,104.08Z" style="fill:#263238"></path><path d="M219.89,89.2c1.08-.63,2-.12,2,1.14a4.36,4.36,0,0,1-2,3.4c-1.09.63-2,.12-2-1.13A4.34,4.34,0,0,1,219.89,89.2Z" style="fill:#263238"></path><path d="M138.9,165.82a7.08,7.08,0,0,0-3.11-5.62,2.07,2.07,0,0,0-2.13-.18c-.39.24-1.92,1.09-2.33,1.33a2.44,2.44,0,0,0-1,2.21V187a7.13,7.13,0,0,0,3.11,5.62,2.1,2.1,0,0,0,2.06.22l2.4-1.37a2.44,2.44,0,0,0,1-2.21Z" style="fill:#455a64"></path><path d="M136.59,167.15v23.46c0,2.11-1.39,3-3.11,2a7.13,7.13,0,0,1-3.11-5.62V163.56c0-2.11,1.4-3,3.11-2A7.1,7.1,0,0,1,136.59,167.15Z" style="fill:#37474f"></path><path d="M138.9,206.88a7.1,7.1,0,0,0-3.11-5.62,2.07,2.07,0,0,0-2.13-.18c-.39.24-1.92,1.09-2.33,1.34a2.43,2.43,0,0,0-1,2.2v23.46a7.11,7.11,0,0,0,3.11,5.62,2.1,2.1,0,0,0,2.06.22c.42-.22,2-1.13,2.4-1.37a2.43,2.43,0,0,0,1-2.21Z" style="fill:#455a64"></path><path d="M136.59,208.21v23.46c0,2.12-1.39,3-3.11,2a7.11,7.11,0,0,1-3.11-5.62V204.62c0-2.11,1.4-3,3.11-2A7.1,7.1,0,0,1,136.59,208.21Z" style="fill:#37474f"></path></g></g><g id="freepik--Screen--inject-2"><g id="freepik--Window--inject-2"><g id="freepik--window--inject-2"><path d="M285.46,81.12c-1.48-.85-3.51-.73-5.75.56l-.64.38L249,99.39l-.2.12a4.53,4.53,0,0,0-1.8,3.36,4.56,4.56,0,0,1-2.14,3.53l-35.77,20.65a.2.2,0,0,1-.08,0,1.34,1.34,0,0,0-.58-1.22l-2.06-1.19a1.42,1.42,0,0,0-1.42.15L203,126,172.3,143.7a10.91,10.91,0,0,0-1.31.9c-.21.17-.4.36-.61.55a14.42,14.42,0,0,0-4.53,9.72v273c0,2.06.72,3.49,1.88,4.17l2.09,1.2c1.16.67,2.77.57,4.55-.46l109.12-63a14.27,14.27,0,0,0,6.44-11.18v-271c0-2.59-.91-4.41-2.38-5.26Z" style="fill:#6895C8"></path><path d="M175,431.88v.54l-.62.35c-1.77,1-3.38,1.13-4.54.46l-2.08-1.2c-1.17-.68-1.88-2.12-1.88-4.17v-273a13.47,13.47,0,0,1,2.22-6.89l2.46,1.42a13,13,0,0,0-2.16,6.66v273a5,5,0,0,0,.89,3.11,2.73,2.73,0,0,0,2.21,1,5.49,5.49,0,0,0,2.66-.83Z" style="opacity:0.30000000000000004"></path><path d="M250.32,102a3.79,3.79,0,0,0-.75,2.09,4.58,4.58,0,0,1-.8,2.39L246.29,105a4,4,0,0,0,.76-2.16,4.33,4.33,0,0,1,.8-2.32Z" style="opacity:0.30000000000000004"></path><path d="M171.48,433.2a2.74,2.74,0,0,1-2.21-1,5,5,0,0,1-.89-3.12v-273a14,14,0,0,1,4.38-9.38l.19-.18.4-.36a10.62,10.62,0,0,1,1.25-.85l30.69-17.72,2-1.15a1.29,1.29,0,0,1,.67-.22c.58,0,.64.68.64,1a1.65,1.65,0,0,0,1.59,1.85,2.44,2.44,0,0,0,1.24-.38L247.2,108a5,5,0,0,0,2.37-3.93,4,4,0,0,1,1.6-3l.17-.1,30-17.33.65-.38a7,7,0,0,1,3.39-1c2.52,0,4.08,2,4.08,5.36v271a13.75,13.75,0,0,1-6.22,10.78l-109.12,63A5.35,5.35,0,0,1,171.48,433.2Z" style="fill:#fafafa"></path><path d="M285.4,82.23a7,7,0,0,0-3.39,1l-.65.38-30,17.33-.17.1a4,4,0,0,0-1.6,3A5,5,0,0,1,247.2,108l-35.77,20.65a2.44,2.44,0,0,1-1.24.38,1.64,1.64,0,0,1-1.59-1.85c0-.29-.06-1-.64-1a1.39,1.39,0,0,0-.67.22l-2,1.15L174.6,145.29a9.76,9.76,0,0,0-1.24.85c-.14.11-.27.24-.41.36l-.19.18a14,14,0,0,0-4.38,9.38v28.83L289.48,115V87.59C289.48,84.28,287.92,82.23,285.4,82.23Z" style="fill:#6895C8"></path><g style="opacity:0.30000000000000004"><path d="M285.4,82.23a7,7,0,0,0-3.39,1l-.65.38-30,17.33-.17.1a4,4,0,0,0-1.6,3A5,5,0,0,1,247.2,108l-35.77,20.65a2.44,2.44,0,0,1-1.24.38,1.64,1.64,0,0,1-1.59-1.85c0-.29-.06-1-.64-1a1.39,1.39,0,0,0-.67.22l-2,1.15L174.6,145.29a9.76,9.76,0,0,0-1.24.85c-.14.11-.27.24-.41.36l-.19.18a14,14,0,0,0-4.38,9.38v28.83L289.48,115V87.59C289.48,84.28,287.92,82.23,285.4,82.23Z" style="fill:#fff"></path></g><path d="M177.11,156.15a.39.39,0,0,1,0,.18c0,.06-.07.11-.12.13l-.24.14q-.08,0-.12,0a.14.14,0,0,1-.05-.12v-4.4l-1,1.54a.2.2,0,0,1-.12.12s-.08,0-.1,0l-.15-.16a.16.16,0,0,1,0-.14.35.35,0,0,1,.06-.18l1.28-2.05.1-.12.1-.06.24-.14a.09.09,0,0,1,.12,0s0,.06,0,.12Z" style="fill:#fafafa"></path><path d="M179.64,154.7a.41.41,0,0,1,0,.18.23.23,0,0,1-.12.12l-.24.15a.13.13,0,0,1-.12,0s0-.07,0-.13v-4.4l-1,1.55a.24.24,0,0,1-.12.11.1.1,0,0,1-.11,0l-.15-.17a.2.2,0,0,1,0-.14.64.64,0,0,1,.06-.18l1.29-2.05a.35.35,0,0,1,.09-.11l.1-.06.24-.15a.13.13,0,0,1,.12,0,.17.17,0,0,1,0,.13Z" style="fill:#fafafa"></path><path d="M181.05,150.33a.11.11,0,0,1,.11,0s.05.07.05.13V151a.31.31,0,0,1-.05.18.36.36,0,0,1-.11.13l-.4.23a.09.09,0,0,1-.12,0s0-.06,0-.12v-.54a.39.39,0,0,1,0-.18.28.28,0,0,1,.12-.12Zm0,2.8a.08.08,0,0,1,.11,0s.05.06.05.12v.54a.33.33,0,0,1-.05.18.36.36,0,0,1-.11.13l-.4.23a.13.13,0,0,1-.12,0,.17.17,0,0,1,0-.13v-.53a.39.39,0,0,1,0-.18.38.38,0,0,1,.12-.13Z" style="fill:#fafafa"></path><path d="M182.44,151.84a.49.49,0,0,0,.34.4.82.82,0,0,0,.61-.14,1.64,1.64,0,0,0,.37-.28,2.31,2.31,0,0,0,.31-.39,2.55,2.55,0,0,0,.2-.48,2,2,0,0,0,.08-.55,1.21,1.21,0,0,0-.08-.47.45.45,0,0,0-.2-.24.52.52,0,0,0-.31-.05,1.11,1.11,0,0,0-.37.15,1.53,1.53,0,0,0-.36.27,2.42,2.42,0,0,0-.22.28l-.16.23a.41.41,0,0,1-.16.16l-.3.18s-.07,0-.09,0a.12.12,0,0,1,0-.1l.18-2.78a.38.38,0,0,1,0-.17c0-.07.07-.11.12-.13l2.11-1.23a.13.13,0,0,1,.12,0,.17.17,0,0,1,0,.13v.28a.39.39,0,0,1,0,.18.26.26,0,0,1-.12.13l-1.74,1-.1,1.44a2.44,2.44,0,0,1,.28-.29,2.61,2.61,0,0,1,.44-.31,1.56,1.56,0,0,1,.59-.21.67.67,0,0,1,.49.09.84.84,0,0,1,.33.4,2.06,2.06,0,0,1,.11.72,3.41,3.41,0,0,1-.11.85,3.89,3.89,0,0,1-.33.78,3.53,3.53,0,0,1-.49.66,2.55,2.55,0,0,1-.59.46,1.63,1.63,0,0,1-.57.22.85.85,0,0,1-.48,0,.62.62,0,0,1-.33-.29,1,1,0,0,1-.13-.55.27.27,0,0,1,0-.14.2.2,0,0,1,.09-.11l.27-.16a.12.12,0,0,1,.1,0A.14.14,0,0,1,182.44,151.84Z" style="fill:#fafafa"></path><path d="M186,149.89a.66.66,0,0,0,.08.21.31.31,0,0,0,.16.14.7.7,0,0,0,.29,0A2.11,2.11,0,0,0,187,150a1.67,1.67,0,0,0,.35-.26,1.48,1.48,0,0,0,.29-.36,1.54,1.54,0,0,0,.2-.43,1.57,1.57,0,0,0,.08-.49,1.06,1.06,0,0,0-.07-.4.33.33,0,0,0-.2-.17.48.48,0,0,0-.29,0,1.82,1.82,0,0,0-.36.16l-.5.29a.09.09,0,0,1-.12,0s0-.06,0-.12V148a.4.4,0,0,1,0-.15l.06-.14,1.08-2.18-1.72,1a.13.13,0,0,1-.12,0,.14.14,0,0,1-.05-.12v-.29a.41.41,0,0,1,.05-.18.3.3,0,0,1,.12-.13l2.36-1.36a.08.08,0,0,1,.11,0,.14.14,0,0,1,0,.12v.29a.4.4,0,0,1,0,.15,1.42,1.42,0,0,1-.08.18l-1.06,2.14a1.51,1.51,0,0,1,.55-.19.64.64,0,0,1,.42.08.72.72,0,0,1,.28.35,1.79,1.79,0,0,1,.1.62,2.72,2.72,0,0,1-.12.8,3.67,3.67,0,0,1-.32.73,3.59,3.59,0,0,1-.48.61,2.35,2.35,0,0,1-.57.45,2,2,0,0,1-.7.28.82.82,0,0,1-.48-.05.61.61,0,0,1-.28-.29,1.35,1.35,0,0,1-.1-.46.42.42,0,0,1,0-.15.24.24,0,0,1,.1-.1l.27-.16s.08,0,.11,0A.22.22,0,0,1,186,149.89Z" style="fill:#fafafa"></path><path d="M195.34,140.48h0m0,0-1.85,6.3V144l-2.06,1.19,3.91-4.75m0-.46h0a.48.48,0,0,0-.23.07l-.09.08,0,0-3.9,4.74a.47.47,0,0,0,0,.6.46.46,0,0,0,.35.17.53.53,0,0,0,.24-.06l1.35-.79v1.93a.47.47,0,0,0,.4.47h.07a.46.46,0,0,0,.45-.33l1.84-6.26a.52.52,0,0,0,0-.18.47.47,0,0,0-.47-.46Zm0,.93Z" style="fill:#fafafa"></path><polygon points="259.4 108.8 258.4 109.38 258.4 107.41 259.4 106.83 259.4 108.8" style="fill:#fafafa"></polygon><polygon points="260.99 107.88 259.99 108.46 259.99 105.65 260.99 105.07 260.99 107.88" style="fill:#fafafa"></polygon><polygon points="262.58 106.96 261.58 107.54 261.58 103.67 262.58 103.09 262.58 106.96" style="fill:#fafafa"></polygon><polygon points="264.18 106.04 263.17 106.62 263.17 101.72 264.18 101.15 264.18 106.04" style="fill:#6895C8"></polygon><path d="M271.16,97a7.51,7.51,0,0,0-2.65,3l.66.53a5.54,5.54,0,0,1,2-2.23,1.79,1.79,0,0,1,2-.08l.67-1.29A2.39,2.39,0,0,0,271.16,97Zm-1.73,3.7.61.49a3.16,3.16,0,0,1,1.12-1.26,1,1,0,0,1,1.14,0l.61-1.19a1.54,1.54,0,0,0-1.75.06A4.86,4.86,0,0,0,269.43,100.68Zm.9.72.83.67.85-1.66a.76.76,0,0,0-.85,0A2.23,2.23,0,0,0,270.33,101.4Z" style="fill:#fafafa"></path><path d="M283.27,90.12c.36-.21.65,0,.65.49v3.16a1.57,1.57,0,0,1-.65,1.25l-5.64,3.25c-.36.21-.65,0-.65-.49V94.62a1.55,1.55,0,0,1,.65-1.24l5.64-3.26m0-.27-5.64,3.26a2,2,0,0,0-.85,1.63V97.9c0,.63.38.92.85.64l5.64-3.25a2.05,2.05,0,0,0,.85-1.63V90.5c0-.63-.38-.92-.85-.65Z" style="fill:#6895C8"></path><path d="M281,95.55l-3.18,1.83c-.15.09-.26,0-.26-.2V94.56a.61.61,0,0,1,.26-.5L281,92.23c.14-.09.26,0,.26.2v2.62A.64.64,0,0,1,281,95.55Z" style="fill:#fafafa"></path><path d="M284.73,92.58l-.23.13V91l.23-.13c.12-.07.23.25.23.73A1.55,1.55,0,0,1,284.73,92.58Z" style="fill:#6895C8"></path><path d="M274.68,110.23a2.57,2.57,0,0,0-1.07,2c0,.79.48,1.15,1.07.81a2.57,2.57,0,0,0,1.07-2C275.75,110.25,275.27,109.89,274.68,110.23Zm8.17-4.72a2.58,2.58,0,0,0-1.08,2c0,.79.49,1.16,1.08.81a2.57,2.57,0,0,0,1.07-2.05C283.92,105.53,283.44,105.17,282.85,105.51Zm-4.09,2.36a2.57,2.57,0,0,0-1.07,2c0,.79.48,1.15,1.07.81a2.55,2.55,0,0,0,1.08-2C279.84,107.89,279.36,107.53,278.76,107.87Z" style="fill:#fafafa"></path><path d="M285.4,82.69h0c2.27,0,3.62,1.83,3.62,4.9v271A13.42,13.42,0,0,1,283,369L173.91,432a5,5,0,0,1-2.43.76c-1.65,0-2.64-1.38-2.64-3.69v-273a13.55,13.55,0,0,1,4.22-9l.21-.19.36-.32a9.48,9.48,0,0,1,1.2-.82L205.52,128l2-1.15a.9.9,0,0,1,.44-.15c.18,0,.18.46.18.51a2.1,2.1,0,0,0,2.05,2.31,2.9,2.9,0,0,0,1.47-.44l35.77-20.65a5.53,5.53,0,0,0,2.6-4.33,3.62,3.62,0,0,1,1.41-2.61l.13-.08L281.6,84l.63-.37a6.57,6.57,0,0,1,3.17-1m0-.92a7.32,7.32,0,0,0-3.63,1.11l-.64.37-30,17.33-.21.13a4.53,4.53,0,0,0-1.79,3.35A4.61,4.61,0,0,1,247,107.6L211.2,128.24a2,2,0,0,1-1,.32c-.67,0-1.13-.51-1.13-1.39s-.45-1.43-1.1-1.43a1.8,1.8,0,0,0-.9.28l-2,1.15-30.69,17.72a10.17,10.17,0,0,0-1.31.9l-.62.55a14.43,14.43,0,0,0-4.52,9.72v273c0,2.92,1.45,4.61,3.56,4.61a5.88,5.88,0,0,0,2.89-.89l109.12-63a14.27,14.27,0,0,0,6.44-11.18v-271c0-3.69-1.84-5.82-4.53-5.82Z" style="fill:#6895C8"></path></g></g></g><g id="freepik--Gears--inject-2"><g id="freepik--Gear--inject-2"><path d="M268.55,424.87a1.67,1.67,0,0,1-1.14-1.72l.35-2.88a1.32,1.32,0,0,0-1.18-1.48L259,418a2.13,2.13,0,0,0-2,1.07L255.52,422a2.65,2.65,0,0,1-2,1.28c-1.32.1-2.64.27-3.93.49a3.91,3.91,0,0,1-2.46-.49l-4.08-2.71a2.88,2.88,0,0,0-2.38-.25l-6.08,2.44a.88.88,0,0,0-.62.77h0v.07h0v6.2h0a1,1,0,0,0,.3.69l.35.37a3.14,3.14,0,0,1-1.67.52l-6.94-.28a1.85,1.85,0,0,0-1.75,1.23l-1.06,3.36a1.5,1.5,0,0,0,0,.42h0v6.27h0a1.13,1.13,0,0,0,1,1.09l5.38.92-2.1,1.06a.86.86,0,0,0-.54.76h0v6.28h0a.92.92,0,0,0,.37.69l3.88,3.23a2.81,2.81,0,0,0,2.33.46l5.91-1.85a4.07,4.07,0,0,1,2.51.16,30.47,30.47,0,0,0,3.17,1.17,1.54,1.54,0,0,1,.78.55v4.23h0a1.33,1.33,0,0,0,1.19,1.3l7.59.79a2.13,2.13,0,0,0,2-1.06l1.52-2.95a2.67,2.67,0,0,1,2-1.28c1.32-.1,2.64-.26,3.94-.49a3.88,3.88,0,0,1,2.45.49l4.08,2.72a2.88,2.88,0,0,0,2.38.24l6.08-2.43a.89.89,0,0,0,.63-.81h0v-6.26h0a1,1,0,0,0-.3-.67l-.35-.38a3.26,3.26,0,0,1,1.67-.52l6.94.28a1.87,1.87,0,0,0,1.76-1.23l1.05-3.36a1.24,1.24,0,0,0,.05-.38h0v-6.24h0a1.12,1.12,0,0,0-1-1.16l-5.38-.92,2.1-1.05a.85.85,0,0,0,.54-.77h0v-6.24h0a1,1,0,0,0-.38-.73l-3.88-3.22a2.73,2.73,0,0,0-2.33-.46l-5.91,1.85a4.15,4.15,0,0,1-2.51-.17A32.92,32.92,0,0,0,268.55,424.87Zm-25.2,15.73a11.26,11.26,0,0,1,5.18-3.76c6.59-2.63,15.63-1.69,20.2,2.11a9.35,9.35,0,0,1,1.55,1.64,11.28,11.28,0,0,1-5.2,3.77c-6.59,2.64-15.63,1.69-20.2-2.11A8.64,8.64,0,0,1,243.35,440.6Z" style="fill:#6895C8"></path><path d="M268.55,424.87a1.67,1.67,0,0,1-1.14-1.72l.35-2.88a1.32,1.32,0,0,0-1.18-1.48L259,418a2.13,2.13,0,0,0-2,1.07L255.52,422a2.65,2.65,0,0,1-2,1.28c-1.32.1-2.64.27-3.93.49a3.91,3.91,0,0,1-2.46-.49l-4.08-2.71a2.88,2.88,0,0,0-2.38-.25l-6.08,2.44a.88.88,0,0,0-.62.77h0v.07h0v6.2h0a1,1,0,0,0,.3.69l.35.37a3.14,3.14,0,0,1-1.67.52l-6.94-.28a1.85,1.85,0,0,0-1.75,1.23l-1.06,3.36a1.5,1.5,0,0,0,0,.42h0v6.27h0a1.13,1.13,0,0,0,1,1.09l5.38.92-2.1,1.06a.86.86,0,0,0-.54.76h0v6.28h0a.92.92,0,0,0,.37.69l3.88,3.23a2.81,2.81,0,0,0,2.33.46l5.91-1.85a4.07,4.07,0,0,1,2.51.16,30.47,30.47,0,0,0,3.17,1.17,1.54,1.54,0,0,1,.78.55v4.23h0a1.33,1.33,0,0,0,1.19,1.3l7.59.79a2.13,2.13,0,0,0,2-1.06l1.52-2.95a2.67,2.67,0,0,1,2-1.28c1.32-.1,2.64-.26,3.94-.49a3.88,3.88,0,0,1,2.45.49l4.08,2.72a2.88,2.88,0,0,0,2.38.24l6.08-2.43a.89.89,0,0,0,.63-.81h0v-6.26h0a1,1,0,0,0-.3-.67l-.35-.38a3.26,3.26,0,0,1,1.67-.52l6.94.28a1.87,1.87,0,0,0,1.76-1.23l1.05-3.36a1.24,1.24,0,0,0,.05-.38h0v-6.24h0a1.12,1.12,0,0,0-1-1.16l-5.38-.92,2.1-1.05a.85.85,0,0,0,.54-.77h0v-6.24h0a1,1,0,0,0-.38-.73l-3.88-3.22a2.73,2.73,0,0,0-2.33-.46l-5.91,1.85a4.15,4.15,0,0,1-2.51-.17A32.92,32.92,0,0,0,268.55,424.87Zm-25.2,15.73a11.26,11.26,0,0,1,5.18-3.76c6.59-2.63,15.63-1.69,20.2,2.11a9.35,9.35,0,0,1,1.55,1.64,11.28,11.28,0,0,1-5.2,3.77c-6.59,2.64-15.63,1.69-20.2-2.11A8.64,8.64,0,0,1,243.35,440.6Z" style="fill:#fff;opacity:0.2"></path><path d="M232.37,439.89a2.27,2.27,0,0,0-1.61-1.54l-6.61-1.13a1.14,1.14,0,0,1-1-1v6.19a1.14,1.14,0,0,0,1,1.09l5.38.93,2.78-1.4a1.32,1.32,0,0,0,.55-1.79A10.08,10.08,0,0,1,232.37,439.89ZM234,429.81h0a1.08,1.08,0,0,0,.3.69l.35.38a2.75,2.75,0,0,0,.58-.44,13.25,13.25,0,0,1,1.66-1.48,1.17,1.17,0,0,0,.17-1.78l-2.76-2.94a1,1,0,0,1-.3-.67Z" style="opacity:0.1"></path><path d="M248.54,430.59c-5.69,2.28-7.69,6.47-5.18,10a11.21,11.21,0,0,1,5.17-3.75c6.59-2.64,15.63-1.7,20.2,2.1a8.58,8.58,0,0,1,1.54,1.64c1.76-2.52,1.35-5.49-1.53-7.89C264.16,428.89,255.12,428,248.54,430.59Z" style="opacity:0.1"></path><path d="M258.73,452.22a2.16,2.16,0,0,0-.63.73l-1.52,2.95a2.1,2.1,0,0,1-1.11.93v6.26a2.1,2.1,0,0,0,1.12-.94l1.52-2.95a2.2,2.2,0,0,1,.65-.72Zm20.89-.83h0a.88.88,0,0,1-.63.82l-6.06,2.43a2.78,2.78,0,0,1-1.6.06V461a2.83,2.83,0,0,0,1.59-.07l6.08-2.43a.89.89,0,0,0,.63-.81Zm-40.31-2.62-5.84,1.83a2.69,2.69,0,0,1-1.46,0v6.23a2.64,2.64,0,0,0,1.47.05l5.84-1.83Zm51.14-9.89a2.58,2.58,0,0,1-.06.37l-1.05,3.36a1.85,1.85,0,0,1-1.75,1.23l-6.94-.28a2.94,2.94,0,0,0-1.09.22V450a2.52,2.52,0,0,1,1.08-.22l6.94.27a1.87,1.87,0,0,0,1.76-1.23l1-3.36a1,1,0,0,0,.06-.38Zm-3.71-10.13a.54.54,0,0,1-.05.22.64.64,0,0,1-.21.32,1.3,1.3,0,0,1-.31.22L281.3,432a.82.82,0,0,0-.29.22,1.1,1.1,0,0,0-.33.5,1.15,1.15,0,0,0-.08.49l0,.25c0,.11.07.22.11.33a7.81,7.81,0,0,1,.5,1.31,2.28,2.28,0,0,0,1.62,1.56l1.22.2,2.1-1.05a.86.86,0,0,0,.54-.77h0Z" style="fill:#6895C8"></path><path d="M258.73,452.22a2.16,2.16,0,0,0-.63.73l-1.52,2.95a2.1,2.1,0,0,1-1.11.93v6.26a2.1,2.1,0,0,0,1.12-.94l1.52-2.95a2.2,2.2,0,0,1,.65-.72Zm20.89-.83h0a.88.88,0,0,1-.63.82l-6.06,2.43a2.78,2.78,0,0,1-1.6.06V461a2.83,2.83,0,0,0,1.59-.07l6.08-2.43a.89.89,0,0,0,.63-.81Zm-40.31-2.62-5.84,1.83a2.69,2.69,0,0,1-1.46,0v6.23a2.64,2.64,0,0,0,1.47.05l5.84-1.83Zm51.14-9.89a2.58,2.58,0,0,1-.06.37l-1.05,3.36a1.85,1.85,0,0,1-1.75,1.23l-6.94-.28a2.94,2.94,0,0,0-1.09.22V450a2.52,2.52,0,0,1,1.08-.22l6.94.27a1.87,1.87,0,0,0,1.76-1.23l1-3.36a1,1,0,0,0,.06-.38Zm-3.71-10.13a.54.54,0,0,1-.05.22.64.64,0,0,1-.21.32,1.3,1.3,0,0,1-.31.22L281.3,432a.82.82,0,0,0-.29.22,1.1,1.1,0,0,0-.33.5,1.15,1.15,0,0,0-.08.49l0,.25c0,.11.07.22.11.33a7.81,7.81,0,0,1,.5,1.31,2.28,2.28,0,0,0,1.62,1.56l1.22.2,2.1-1.05a.86.86,0,0,0,.54-.77h0Z" style="fill:#fff;opacity:0.7000000000000001"></path><path d="M280.14,424.35l-5.91,1.85a4.15,4.15,0,0,1-2.51-.17,32.92,32.92,0,0,0-3.17-1.16,1.67,1.67,0,0,1-1.14-1.72l.35-2.88a1.32,1.32,0,0,0-1.18-1.48L259,418a2.13,2.13,0,0,0-2,1.07L255.52,422a2.65,2.65,0,0,1-2,1.28c-1.32.1-2.64.27-3.93.49a3.91,3.91,0,0,1-2.46-.49l-4.08-2.71a2.88,2.88,0,0,0-2.38-.25l-6.08,2.44a.85.85,0,0,0-.33,1.48l2.76,2.93a1.17,1.17,0,0,1-.17,1.78,17.26,17.26,0,0,0-1.66,1.48,3.36,3.36,0,0,1-2.25,1l-6.94-.28a1.85,1.85,0,0,0-1.75,1.23l-1.06,3.36a1.16,1.16,0,0,0,.93,1.52l6.61,1.13a2.25,2.25,0,0,1,1.61,1.55,8.78,8.78,0,0,0,.5,1.31,1.33,1.33,0,0,1-.56,1.79l-4.88,2.45a.82.82,0,0,0-.16,1.47l3.87,3.22a2.74,2.74,0,0,0,2.33.46l5.91-1.85a4.19,4.19,0,0,1,2.52.17,31.77,31.77,0,0,0,3.16,1.16,1.67,1.67,0,0,1,1.14,1.72l-.35,2.88a1.32,1.32,0,0,0,1.18,1.48l7.59.8a2.12,2.12,0,0,0,2-1.07L258.1,453a2.61,2.61,0,0,1,2-1.28c1.33-.1,2.64-.27,3.94-.49a3.88,3.88,0,0,1,2.45.49l4.08,2.71a2.85,2.85,0,0,0,2.38.25l6.08-2.44a.85.85,0,0,0,.33-1.48l-2.76-2.93a1.17,1.17,0,0,1,.17-1.78,16.13,16.13,0,0,0,1.66-1.48,3.38,3.38,0,0,1,2.25-1l6.94.28a1.87,1.87,0,0,0,1.76-1.23l1.05-3.36a1.15,1.15,0,0,0-.93-1.52l-6.6-1.13a2.26,2.26,0,0,1-1.62-1.55,10,10,0,0,0-.49-1.31,1.32,1.32,0,0,1,.55-1.79l4.88-2.45a.82.82,0,0,0,.17-1.47l-3.88-3.22A2.73,2.73,0,0,0,280.14,424.35Zm-11.41,8.35c4.57,3.8,2.93,9-3.65,11.66s-15.63,1.69-20.2-2.11-2.93-9,3.65-11.66S264.16,428.9,268.73,432.7Z" style="fill:#6895C8"></path><path d="M280.14,424.35l-5.91,1.85a4.15,4.15,0,0,1-2.51-.17,32.92,32.92,0,0,0-3.17-1.16,1.67,1.67,0,0,1-1.14-1.72l.35-2.88a1.32,1.32,0,0,0-1.18-1.48L259,418a2.13,2.13,0,0,0-2,1.07L255.52,422a2.65,2.65,0,0,1-2,1.28c-1.32.1-2.64.27-3.93.49a3.91,3.91,0,0,1-2.46-.49l-4.08-2.71a2.88,2.88,0,0,0-2.38-.25l-6.08,2.44a.85.85,0,0,0-.33,1.48l2.76,2.93a1.17,1.17,0,0,1-.17,1.78,17.26,17.26,0,0,0-1.66,1.48,3.36,3.36,0,0,1-2.25,1l-6.94-.28a1.85,1.85,0,0,0-1.75,1.23l-1.06,3.36a1.16,1.16,0,0,0,.93,1.52l6.61,1.13a2.25,2.25,0,0,1,1.61,1.55,8.78,8.78,0,0,0,.5,1.31,1.33,1.33,0,0,1-.56,1.79l-4.88,2.45a.82.82,0,0,0-.16,1.47l3.87,3.22a2.74,2.74,0,0,0,2.33.46l5.91-1.85a4.19,4.19,0,0,1,2.52.17,31.77,31.77,0,0,0,3.16,1.16,1.67,1.67,0,0,1,1.14,1.72l-.35,2.88a1.32,1.32,0,0,0,1.18,1.48l7.59.8a2.12,2.12,0,0,0,2-1.07L258.1,453a2.61,2.61,0,0,1,2-1.28c1.33-.1,2.64-.27,3.94-.49a3.88,3.88,0,0,1,2.45.49l4.08,2.71a2.85,2.85,0,0,0,2.38.25l6.08-2.44a.85.85,0,0,0,.33-1.48l-2.76-2.93a1.17,1.17,0,0,1,.17-1.78,16.13,16.13,0,0,0,1.66-1.48,3.38,3.38,0,0,1,2.25-1l6.94.28a1.87,1.87,0,0,0,1.76-1.23l1.05-3.36a1.15,1.15,0,0,0-.93-1.52l-6.6-1.13a2.26,2.26,0,0,1-1.62-1.55,10,10,0,0,0-.49-1.31,1.32,1.32,0,0,1,.55-1.79l4.88-2.45a.82.82,0,0,0,.17-1.47l-3.88-3.22A2.73,2.73,0,0,0,280.14,424.35Zm-11.41,8.35c4.57,3.8,2.93,9-3.65,11.66s-15.63,1.69-20.2-2.11-2.93-9,3.65-11.66S264.16,428.9,268.73,432.7Z" style="fill:#fff;opacity:0.55"></path><g style="opacity:0.55"><path d="M258.83,418.74h.08l7.59.8a.53.53,0,0,1,.39.21.55.55,0,0,1,.12.43l-.35,2.88a2.42,2.42,0,0,0,1.67,2.53,29.53,29.53,0,0,1,3.09,1.14,4.91,4.91,0,0,0,1.87.35,4.19,4.19,0,0,0,1.17-.16l5.91-1.85a1.27,1.27,0,0,1,.41-.06,2.07,2.07,0,0,1,1.21.38l3.87,3.23c.08.06.11.11.12.11a.37.37,0,0,1-.14.1L281,431.28a2.07,2.07,0,0,0-.9,2.78,8.11,8.11,0,0,1,.46,1.21,3,3,0,0,0,2.21,2.08l6.6,1.13a.41.41,0,0,1,.31.18.44.44,0,0,1,0,.36l-1.05,3.36a1.13,1.13,0,0,1-1,.71h0l-6.94-.28h-.1a4.19,4.19,0,0,0-2.72,1.19,15.52,15.52,0,0,1-1.58,1.41,2,2,0,0,0-.79,1.43,1.93,1.93,0,0,0,.53,1.46l2.76,2.93a.45.45,0,0,1,.1.17s-.05.06-.16.1l-6.08,2.44a1.75,1.75,0,0,1-.6.1,2.05,2.05,0,0,1-1.08-.28L266.87,451a4.62,4.62,0,0,0-2.4-.66,3.73,3.73,0,0,0-.6.05c-1.26.22-2.56.38-3.86.48a3.41,3.41,0,0,0-2.58,1.69l-1.52,2.95a1.38,1.38,0,0,1-1.12.66h-.09l-7.59-.8a.53.53,0,0,1-.39-.21.55.55,0,0,1-.12-.43l.35-2.88a2.43,2.43,0,0,0-1.66-2.53,29.53,29.53,0,0,1-3.09-1.14,5,5,0,0,0-1.88-.35,4.19,4.19,0,0,0-1.17.16l-5.9,1.85a1.33,1.33,0,0,1-.42.06,2,2,0,0,1-1.2-.38l-3.88-3.22c-.08-.07-.1-.12-.11-.12a.25.25,0,0,1,.13-.1l4.88-2.45a2.07,2.07,0,0,0,.9-2.78,8.11,8.11,0,0,1-.46-1.21,3,3,0,0,0-2.21-2.08l-6.6-1.13a.41.41,0,0,1-.31-.18.44.44,0,0,1,0-.36l1.06-3.36a1.1,1.1,0,0,1,1-.71h0l6.94.28h.1a4.17,4.17,0,0,0,2.72-1.19,16.67,16.67,0,0,1,1.58-1.41,2,2,0,0,0,.79-1.42,1.94,1.94,0,0,0-.53-1.47l-2.76-2.93a.38.38,0,0,1-.1-.17.37.37,0,0,1,.16-.1L241,421a1.77,1.77,0,0,1,.61-.1,2,2,0,0,1,1.07.28l4.09,2.71a4.58,4.58,0,0,0,2.39.66,3.86,3.86,0,0,0,.61-.05c1.25-.22,2.55-.38,3.86-.48a3.45,3.45,0,0,0,2.58-1.69l1.51-3a1.39,1.39,0,0,1,1.13-.66h0m-2,27.87a23.26,23.26,0,0,0,8.54-1.55c3.79-1.52,6.21-4,6.65-6.71.35-2.23-.64-4.44-2.8-6.23-2.84-2.37-7.48-3.78-12.42-3.78a23.29,23.29,0,0,0-8.54,1.55c-3.79,1.52-6.21,4-6.64,6.71-.36,2.23.64,4.44,2.79,6.23,2.84,2.37,7.48,3.78,12.42,3.78m2-28.62a2.12,2.12,0,0,0-1.8,1.07L255.52,422a2.65,2.65,0,0,1-2,1.28c-1.32.1-2.64.27-3.93.49a2.45,2.45,0,0,1-.48,0,3.9,3.9,0,0,1-2-.53l-4.08-2.71a2.81,2.81,0,0,0-1.49-.4,2.52,2.52,0,0,0-.89.15l-6.08,2.44a.85.85,0,0,0-.33,1.48l2.76,2.93a1.17,1.17,0,0,1-.17,1.78,17.26,17.26,0,0,0-1.66,1.48,3.43,3.43,0,0,1-2.18,1H233l-6.94-.28H226a1.85,1.85,0,0,0-1.69,1.23l-1.06,3.36a1.16,1.16,0,0,0,.93,1.52l6.61,1.13a2.25,2.25,0,0,1,1.61,1.55,8.78,8.78,0,0,0,.5,1.31,1.33,1.33,0,0,1-.56,1.79l-4.88,2.45a.82.82,0,0,0-.16,1.47l3.87,3.22a2.76,2.76,0,0,0,1.69.55,2.15,2.15,0,0,0,.64-.09l5.91-1.85a3.4,3.4,0,0,1,.94-.12,4.12,4.12,0,0,1,1.58.29,31.77,31.77,0,0,0,3.16,1.16,1.67,1.67,0,0,1,1.14,1.72l-.35,2.88a1.32,1.32,0,0,0,1.18,1.48l7.59.8h.17a2.12,2.12,0,0,0,1.79-1.07L258.1,453a2.61,2.61,0,0,1,2-1.28c1.33-.1,2.64-.27,3.94-.49a2.29,2.29,0,0,1,.47,0,3.9,3.9,0,0,1,2,.53l4.08,2.71a2.82,2.82,0,0,0,1.5.4,2.42,2.42,0,0,0,.88-.15l6.08-2.44a.85.85,0,0,0,.33-1.48l-2.76-2.93a1.17,1.17,0,0,1,.17-1.78,16.13,16.13,0,0,0,1.66-1.48,3.43,3.43,0,0,1,2.18-1h.07l6.94.28h.06a1.87,1.87,0,0,0,1.7-1.23l1.05-3.36a1.15,1.15,0,0,0-.93-1.52l-6.6-1.13a2.26,2.26,0,0,1-1.62-1.55,10,10,0,0,0-.49-1.31,1.32,1.32,0,0,1,.55-1.79l4.88-2.45a.82.82,0,0,0,.17-1.47l-3.88-3.22a2.76,2.76,0,0,0-1.69-.55,2.25,2.25,0,0,0-.64.09l-5.91,1.85a3.4,3.4,0,0,1-.94.12,4,4,0,0,1-1.57-.29,32.92,32.92,0,0,0-3.17-1.16,1.67,1.67,0,0,1-1.14-1.72l.35-2.88a1.32,1.32,0,0,0-1.18-1.48L259,418Zm-2,27.86c-4.6,0-9.12-1.25-11.94-3.6-4.57-3.8-2.93-9,3.65-11.66a22.54,22.54,0,0,1,8.26-1.49c4.6,0,9.12,1.25,11.94,3.6,4.57,3.8,2.93,9-3.65,11.66a22.5,22.5,0,0,1-8.26,1.49Z" style="fill:#fff"></path></g></g><g id="freepik--gear--inject-2"><path d="M363.81,395.16l-7.42-4.29a2,2,0,0,0-1.64-.07l-7.53,3.49a2.81,2.81,0,0,1-1.72.1,44,44,0,0,0-5.84-1.39,1.42,1.42,0,0,1-1.09-1.06l-.94-5a1.17,1.17,0,0,0-1.1-.91H325.61a1.15,1.15,0,0,0-1.09.91l-.95,5a1.41,1.41,0,0,1-1.08,1.06,43.63,43.63,0,0,0-5.84,1.39,2.84,2.84,0,0,1-1.73-.1l-7.52-3.49a2,2,0,0,0-1.64.07l-7.43,4.29a.59.59,0,0,0-.34.5h0l0,6.44h0a.64.64,0,0,0,.29.5l3.42,2.46a1.71,1.71,0,0,1-.84.35L291,406a1,1,0,0,0-.93,1v4.2h0l0,7.74a1,1,0,0,0,.93,1l9.89.63a1.66,1.66,0,0,1,.86.36l-3.4,2.45a.61.61,0,0,0-.29.49h0l0,6.44h0a.63.63,0,0,0,.34.51l7.43,4.28a2,2,0,0,0,1.64.08l7.53-3.49a2.67,2.67,0,0,1,1.72-.1,46.94,46.94,0,0,0,5.84,1.39,1.43,1.43,0,0,1,1.09,1.05l.94,5a1.16,1.16,0,0,0,1.1.91h10.91a1.16,1.16,0,0,0,1.1-.91l.94-5a1.41,1.41,0,0,1,1.09-1.05,46.94,46.94,0,0,0,5.84-1.39,2.67,2.67,0,0,1,1.72.1l7.53,3.49a2,2,0,0,0,1.64-.08l7.42-4.28a.61.61,0,0,0,.35-.5h0l0-6.45h0a.65.65,0,0,0-.3-.49l-3.41-2.46a1.63,1.63,0,0,1,.84-.35l9.89-.63a1,1,0,0,0,.93-1V407a1,1,0,0,0-.92-1l-9.89-.62a1.68,1.68,0,0,1-.86-.37l3.39-2.44a.62.62,0,0,0,.3-.49h0l0-6.45h0A.61.61,0,0,0,363.81,395.16ZM313.7,411.83c.53-1.78,2.12-3.52,4.83-5.08,6.93-4,18.15-4,25.08,0,2.54,1.47,4.2,3.08,4.95,4.73-.59,2-2.24,4-4.95,5.54-6.92,4-18.15,4-25.08,0A10.29,10.29,0,0,1,313.7,411.83Z" style="fill:#6895C8"></path><path d="M363.81,395.16l-7.42-4.29a2,2,0,0,0-1.64-.07l-7.53,3.49a2.81,2.81,0,0,1-1.72.1,44,44,0,0,0-5.84-1.39,1.42,1.42,0,0,1-1.09-1.06l-.94-5a1.17,1.17,0,0,0-1.1-.91H325.61a1.15,1.15,0,0,0-1.09.91l-.95,5a1.41,1.41,0,0,1-1.08,1.06,43.63,43.63,0,0,0-5.84,1.39,2.84,2.84,0,0,1-1.73-.1l-7.52-3.49a2,2,0,0,0-1.64.07l-7.43,4.29a.59.59,0,0,0-.34.5h0l0,6.44h0a.64.64,0,0,0,.29.5l3.42,2.46a1.71,1.71,0,0,1-.84.35L291,406a1,1,0,0,0-.93,1v4.2h0l0,7.74a1,1,0,0,0,.93,1l9.89.63a1.66,1.66,0,0,1,.86.36l-3.4,2.45a.61.61,0,0,0-.29.49h0l0,6.44h0a.63.63,0,0,0,.34.51l7.43,4.28a2,2,0,0,0,1.64.08l7.53-3.49a2.67,2.67,0,0,1,1.72-.1,46.94,46.94,0,0,0,5.84,1.39,1.43,1.43,0,0,1,1.09,1.05l.94,5a1.16,1.16,0,0,0,1.1.91h10.91a1.16,1.16,0,0,0,1.1-.91l.94-5a1.41,1.41,0,0,1,1.09-1.05,46.94,46.94,0,0,0,5.84-1.39,2.67,2.67,0,0,1,1.72.1l7.53,3.49a2,2,0,0,0,1.64-.08l7.42-4.28a.61.61,0,0,0,.35-.5h0l0-6.45h0a.65.65,0,0,0-.3-.49l-3.41-2.46a1.63,1.63,0,0,1,.84-.35l9.89-.63a1,1,0,0,0,.93-1V407a1,1,0,0,0-.92-1l-9.89-.62a1.68,1.68,0,0,1-.86-.37l3.39-2.44a.62.62,0,0,0,.3-.49h0l0-6.45h0A.61.61,0,0,0,363.81,395.16ZM313.7,411.83c.53-1.78,2.12-3.52,4.83-5.08,6.93-4,18.15-4,25.08,0,2.54,1.47,4.2,3.08,4.95,4.73-.59,2-2.24,4-4.95,5.54-6.92,4-18.15,4-25.08,0A10.29,10.29,0,0,1,313.7,411.83Z" style="fill:#fff;opacity:0.2"></path><path d="M302.17,415a1.83,1.83,0,0,0-1.33-.89l-9.9-.62a1,1,0,0,1-.92-1v-1.3l0,7.74a1,1,0,0,0,.93,1l9.89.63a1.69,1.69,0,0,1,.87.36l2.48-1.79a.78.78,0,0,0,.1-1.2A15.39,15.39,0,0,1,302.17,415ZM298,402.1h0a.61.61,0,0,0,.29.5l3.42,2.46a1.66,1.66,0,0,0,.49-.54,15.39,15.39,0,0,1,2.1-2.92.77.77,0,0,0-.11-1.2l-5.88-4.24a.74.74,0,0,1-.3-.43Z" style="opacity:0.1"></path><path d="M343.61,402.54c-6.93-4-18.15-4-25.08,0-4.38,2.53-6,6.05-4.83,9.31.52-1.78,2.12-3.52,4.83-5.09,6.93-4,18.15-4,25.08,0,2.54,1.46,4.2,3.07,4.95,4.73C349.48,408.32,347.82,405,343.61,402.54Z" style="opacity:0.1"></path><path d="M372.12,412.66a1,1,0,0,1-.92.86l-9.89.62a1.34,1.34,0,0,0-.5.14v6.44a1.51,1.51,0,0,1,.49-.14l9.89-.63a1,1,0,0,0,.93-1Zm-8-17h0a.27.27,0,0,1,0,.19.37.37,0,0,1-.11.2.76.76,0,0,1-.14.11L358,400.39a.6.6,0,0,0-.14.13.82.82,0,0,0-.19.37,1,1,0,0,0,0,.24l0,.13a1,1,0,0,0,.2.34l.11.13a14.8,14.8,0,0,1,2,2.79,2.09,2.09,0,0,0,.47.53l3.4-2.45a.62.62,0,0,0,.3-.49h0Zm0,28.28a.66.66,0,0,1-.35.46l-7.43,4.28a1.89,1.89,0,0,1-1.15.2v6.43a1.91,1.91,0,0,0,1.15-.2l7.42-4.28a.59.59,0,0,0,.35-.49Zm-48.5,1.15a2.36,2.36,0,0,0-.74.17l-7.52,3.49a1.6,1.6,0,0,1-.67.14l0,6.43a1.78,1.78,0,0,0,.67-.14l7.53-3.48a2.06,2.06,0,0,1,.74-.17ZM337.45,433a1.12,1.12,0,0,1-.92.49H325.61a1.19,1.19,0,0,1-.67-.24v6.43a1.07,1.07,0,0,0,.66.24h10.91a1.15,1.15,0,0,0,.95-.55Z" style="fill:#6895C8"></path><path d="M372.12,412.66a1,1,0,0,1-.92.86l-9.89.62a1.34,1.34,0,0,0-.5.14v6.44a1.51,1.51,0,0,1,.49-.14l9.89-.63a1,1,0,0,0,.93-1Zm-8-17h0a.27.27,0,0,1,0,.19.37.37,0,0,1-.11.2.76.76,0,0,1-.14.11L358,400.39a.6.6,0,0,0-.14.13.82.82,0,0,0-.19.37,1,1,0,0,0,0,.24l0,.13a1,1,0,0,0,.2.34l.11.13a14.8,14.8,0,0,1,2,2.79,2.09,2.09,0,0,0,.47.53l3.4-2.45a.62.62,0,0,0,.3-.49h0Zm0,28.28a.66.66,0,0,1-.35.46l-7.43,4.28a1.89,1.89,0,0,1-1.15.2v6.43a1.91,1.91,0,0,0,1.15-.2l7.42-4.28a.59.59,0,0,0,.35-.49Zm-48.5,1.15a2.36,2.36,0,0,0-.74.17l-7.52,3.49a1.6,1.6,0,0,1-.67.14l0,6.43a1.78,1.78,0,0,0,.67-.14l7.53-3.48a2.06,2.06,0,0,1,.74-.17ZM337.45,433a1.12,1.12,0,0,1-.92.49H325.61a1.19,1.19,0,0,1-.67-.24v6.43a1.07,1.07,0,0,0,.66.24h10.91a1.15,1.15,0,0,0,.95-.55Z" style="fill:#fff;opacity:0.7000000000000001"></path><path d="M354.75,390.8l-7.53,3.49a2.81,2.81,0,0,1-1.72.1,44,44,0,0,0-5.84-1.39,1.42,1.42,0,0,1-1.09-1.06l-.94-5a1.17,1.17,0,0,0-1.1-.91H325.61a1.15,1.15,0,0,0-1.09.91l-.95,5a1.41,1.41,0,0,1-1.08,1.06,43.63,43.63,0,0,0-5.84,1.39,2.84,2.84,0,0,1-1.73-.1l-7.52-3.49a2,2,0,0,0-1.64.07l-7.43,4.29a.55.55,0,0,0-.05,1l5.89,4.24a.78.78,0,0,1,.1,1.2,15.52,15.52,0,0,0-2.1,2.92,1.79,1.79,0,0,1-1.33.88L291,406a1,1,0,0,0-.93,1v5.51a1,1,0,0,0,.92,1l9.9.63a1.79,1.79,0,0,1,1.33.88,15.08,15.08,0,0,0,2.1,2.92.78.78,0,0,1-.1,1.2l-5.89,4.24a.55.55,0,0,0,.05,1l7.43,4.29a2,2,0,0,0,1.64.07l7.52-3.49a2.82,2.82,0,0,1,1.72-.1,44.15,44.15,0,0,0,5.85,1.39,1.43,1.43,0,0,1,1.08,1.06l.94,5a1.17,1.17,0,0,0,1.1.91h10.92a1.17,1.17,0,0,0,1.1-.91l.94-5a1.42,1.42,0,0,1,1.09-1.06,44,44,0,0,0,5.84-1.39,2.81,2.81,0,0,1,1.72.1l7.53,3.49a2,2,0,0,0,1.64-.07l7.42-4.29a.55.55,0,0,0,.05-1L358,419.15a.77.77,0,0,1-.11-1.2A14.67,14.67,0,0,0,360,415a1.81,1.81,0,0,1,1.34-.88l9.89-.63a1,1,0,0,0,.92-1V407a1,1,0,0,0-.92-1l-9.89-.62a1.85,1.85,0,0,1-1.34-.89,14.67,14.67,0,0,0-2.1-2.92.77.77,0,0,1,.11-1.2l5.88-4.24a.55.55,0,0,0-.05-1l-7.42-4.29A2,2,0,0,0,354.75,390.8Zm-11.14,11.73c6.93,4,6.93,10.49,0,14.49s-18.15,4-25.08,0-6.92-10.49,0-14.49S336.69,398.54,343.61,402.53Z" style="fill:#6895C8"></path><path d="M354.75,390.8l-7.53,3.49a2.81,2.81,0,0,1-1.72.1,44,44,0,0,0-5.84-1.39,1.42,1.42,0,0,1-1.09-1.06l-.94-5a1.17,1.17,0,0,0-1.1-.91H325.61a1.15,1.15,0,0,0-1.09.91l-.95,5a1.41,1.41,0,0,1-1.08,1.06,43.63,43.63,0,0,0-5.84,1.39,2.84,2.84,0,0,1-1.73-.1l-7.52-3.49a2,2,0,0,0-1.64.07l-7.43,4.29a.55.55,0,0,0-.05,1l5.89,4.24a.78.78,0,0,1,.1,1.2,15.52,15.52,0,0,0-2.1,2.92,1.79,1.79,0,0,1-1.33.88L291,406a1,1,0,0,0-.93,1v5.51a1,1,0,0,0,.92,1l9.9.63a1.79,1.79,0,0,1,1.33.88,15.08,15.08,0,0,0,2.1,2.92.78.78,0,0,1-.1,1.2l-5.89,4.24a.55.55,0,0,0,.05,1l7.43,4.29a2,2,0,0,0,1.64.07l7.52-3.49a2.82,2.82,0,0,1,1.72-.1,44.15,44.15,0,0,0,5.85,1.39,1.43,1.43,0,0,1,1.08,1.06l.94,5a1.17,1.17,0,0,0,1.1.91h10.92a1.17,1.17,0,0,0,1.1-.91l.94-5a1.42,1.42,0,0,1,1.09-1.06,44,44,0,0,0,5.84-1.39,2.81,2.81,0,0,1,1.72.1l7.53,3.49a2,2,0,0,0,1.64-.07l7.42-4.29a.55.55,0,0,0,.05-1L358,419.15a.77.77,0,0,1-.11-1.2A14.67,14.67,0,0,0,360,415a1.81,1.81,0,0,1,1.34-.88l9.89-.63a1,1,0,0,0,.92-1V407a1,1,0,0,0-.92-1l-9.89-.62a1.85,1.85,0,0,1-1.34-.89,14.67,14.67,0,0,0-2.1-2.92.77.77,0,0,1,.11-1.2l5.88-4.24a.55.55,0,0,0-.05-1l-7.42-4.29A2,2,0,0,0,354.75,390.8Zm-11.14,11.73c6.93,4,6.93,10.49,0,14.49s-18.15,4-25.08,0-6.92-10.49,0-14.49S336.69,398.54,343.61,402.53Z" style="fill:#fff;opacity:0.55"></path><g style="opacity:0.55"><path d="M336.53,386.6h0a.64.64,0,0,1,.58.48l.94,5a1.94,1.94,0,0,0,1.52,1.48,43.84,43.84,0,0,1,5.77,1.37,2.77,2.77,0,0,0,.85.12,3,3,0,0,0,1.25-.25l7.53-3.48a1.21,1.21,0,0,1,.5-.09,1.36,1.36,0,0,1,.65.14l7.43,4.29.08,0h0a.3.3,0,0,1-.08.07L357.67,400a1.32,1.32,0,0,0-.56.93,1.38,1.38,0,0,0,.37,1.06,14.55,14.55,0,0,1,2,2.81,2.33,2.33,0,0,0,1.76,1.16l9.9.63a.46.46,0,0,1,.42.46v5.51a.46.46,0,0,1-.42.46l-9.9.63a2.33,2.33,0,0,0-1.76,1.16,14.25,14.25,0,0,1-2,2.81,1.34,1.34,0,0,0-.37,1.06,1.32,1.32,0,0,0,.56.93l5.88,4.24.08.05h0l-.08.06-7.43,4.29a1.36,1.36,0,0,1-.65.14,1.24,1.24,0,0,1-.5-.09l-7.53-3.48a3,3,0,0,0-1.25-.25,2.77,2.77,0,0,0-.85.12,43.84,43.84,0,0,1-5.77,1.37,1.94,1.94,0,0,0-1.52,1.48l-.94,5a.65.65,0,0,1-.58.48H325.61a.65.65,0,0,1-.58-.48l-.94-5a1.93,1.93,0,0,0-1.52-1.48,44.22,44.22,0,0,1-5.77-1.37,2.7,2.7,0,0,0-.84-.12,3,3,0,0,0-1.26.25l-7.52,3.48a1.29,1.29,0,0,1-.51.09,1.39,1.39,0,0,1-.65-.14l-7.42-4.29-.08,0h0l.07-.07,5.88-4.24a1.32,1.32,0,0,0,.56-.93,1.34,1.34,0,0,0-.37-1.06,14.49,14.49,0,0,1-2-2.81,2.37,2.37,0,0,0-1.77-1.16L291,413a.47.47,0,0,1-.43-.46V407a.47.47,0,0,1,.43-.46l9.89-.63a2.37,2.37,0,0,0,1.77-1.16,14.25,14.25,0,0,1,2-2.81,1.37,1.37,0,0,0,.36-1.06,1.32,1.32,0,0,0-.56-.93l-5.88-4.24-.07-.05h0a.19.19,0,0,1,.08-.06l7.42-4.29a1.39,1.39,0,0,1,.65-.14,1.29,1.29,0,0,1,.51.09l7.52,3.48A3,3,0,0,0,316,395a2.7,2.7,0,0,0,.84-.12,44.22,44.22,0,0,1,5.77-1.37,1.93,1.93,0,0,0,1.52-1.48l.94-5a.65.65,0,0,1,.58-.48h10.92m-5.46,33.94a26,26,0,0,0,12.81-3.07c3.52-2,5.46-4.76,5.46-7.69s-1.94-5.67-5.46-7.7a28.24,28.24,0,0,0-25.61,0c-3.52,2-5.46,4.76-5.46,7.7s1.94,5.66,5.46,7.69a26,26,0,0,0,12.8,3.07m5.46-34.47H325.61a1.15,1.15,0,0,0-1.09.91l-.95,5a1.41,1.41,0,0,1-1.08,1.06,43.63,43.63,0,0,0-5.84,1.39,2.45,2.45,0,0,1-.69.09,2.79,2.79,0,0,1-1-.19l-7.52-3.49a1.73,1.73,0,0,0-.73-.14,1.88,1.88,0,0,0-.91.21l-7.43,4.29a.55.55,0,0,0-.05,1l5.89,4.24a.78.78,0,0,1,.1,1.2,15.52,15.52,0,0,0-2.1,2.92,1.79,1.79,0,0,1-1.33.88L291,406a1,1,0,0,0-.93,1v5.51a1,1,0,0,0,.92,1l9.9.63a1.79,1.79,0,0,1,1.33.88,15.52,15.52,0,0,0,2.1,2.92.78.78,0,0,1-.1,1.2l-5.89,4.24a.55.55,0,0,0,.05,1l7.43,4.29a1.88,1.88,0,0,0,.91.21,1.73,1.73,0,0,0,.73-.14l7.52-3.49a2.79,2.79,0,0,1,1-.19,2.33,2.33,0,0,1,.68.09,44.15,44.15,0,0,0,5.85,1.39,1.43,1.43,0,0,1,1.08,1.06l.94,5a1.17,1.17,0,0,0,1.1.91h10.92a1.17,1.17,0,0,0,1.1-.91l.94-5a1.42,1.42,0,0,1,1.09-1.06,44,44,0,0,0,5.84-1.39,2.45,2.45,0,0,1,.69-.09,2.74,2.74,0,0,1,1,.19l7.53,3.49a1.65,1.65,0,0,0,.72.14,2,2,0,0,0,.92-.21l7.42-4.29a.55.55,0,0,0,.05-1L358,419.15a.77.77,0,0,1-.11-1.2A14.67,14.67,0,0,0,360,415a1.81,1.81,0,0,1,1.34-.88l9.89-.63a1,1,0,0,0,.92-1V407a1,1,0,0,0-.92-1l-9.89-.62a1.85,1.85,0,0,1-1.34-.89,14.67,14.67,0,0,0-2.1-2.92.77.77,0,0,1,.11-1.2l5.88-4.24a.55.55,0,0,0-.05-1l-7.42-4.29a2,2,0,0,0-.92-.21,1.65,1.65,0,0,0-.72.14l-7.53,3.49a2.74,2.74,0,0,1-1,.19,2.45,2.45,0,0,1-.69-.09,44,44,0,0,0-5.84-1.39,1.42,1.42,0,0,1-1.09-1.06l-.94-5a1.17,1.17,0,0,0-1.1-.91ZM331.07,420a25.61,25.61,0,0,1-12.54-3c-6.92-4-6.92-10.49,0-14.49a27.79,27.79,0,0,1,25.08,0c6.93,4,6.93,10.49,0,14.49a25.72,25.72,0,0,1-12.54,3Z" style="fill:#fff"></path></g></g></g><g id="freepik--frames-1--inject-2"><g id="freepik--frame--inject-2"><path d="M236.09,174.65h-1v-1.48a1.69,1.69,0,0,0,0-.23l-.06-.19v-.06l0-.08-.06-.13-.2-.24-.06,0a.79.79,0,0,0-.46,0l-.16-1a1.65,1.65,0,0,1,1,.12,1.35,1.35,0,0,1,.26.15l.07.06a.62.62,0,0,1,.14.14l.11.13a.5.5,0,0,1,.11.18,1.17,1.17,0,0,1,.16.36.56.56,0,0,1,0,.18l.08.15,0,.07s0,.08,0,.12a3,3,0,0,1,0,.31Z" style="fill:#6895C8"></path><path d="M185.12,280.92a2,2,0,0,1-.38-.05,1.45,1.45,0,0,1-.29-.11.86.86,0,0,1-.21-.11,2.26,2.26,0,0,1-.75-.91,3.06,3.06,0,0,1-.28-1.29v-1.06h1v1.06a2.14,2.14,0,0,0,.17.85,1.44,1.44,0,0,0,.37.51l.12.07v.51l.11-.47a.53.53,0,0,0,.16,0l.11,1Zm3.71-1.86-.49-.85,3.33-1.92.48.84Zm6.65-3.85-.49-.84,3.33-1.92.49.84Zm-11.29-1.66h-1v-3.84h1Zm17.94-2.18-.48-.84L205,268.6l.49.85Zm6.65-3.85-.48-.84,3.32-1.92.49.84Zm-24.59-1.66h-1V262h1Zm31.25-2.18-.49-.84,3.33-1.92.48.84Zm6.65-3.84-.49-.85,3.33-1.92.49.84Zm-37.9-1.66h-1v-3.84h1ZM228.74,256l-.48-.84,3.32-1.92.49.84Zm6.5-4.38-.81-.53a4,4,0,0,0,.68-2.07v-1.35h1V249A5,5,0,0,1,235.24,251.61Zm-51.05-1.11h-1v-3.84h1Zm51.9-6.68h-1V240h1Zm-51.9-1h-1V239h1Zm51.9-6.69h-1v-3.84h1Zm-51.9-1h-1v-3.84h1Zm51.9-6.68h-1v-3.84h1Zm-51.9-1h-1v-3.84h1Zm51.9-6.68h-1v-3.84h1Zm-51.9-1h-1v-3.84h1Zm51.9-6.69h-1v-3.84h1Zm-51.9-1h-1v-3.85h1Zm51.9-6.69h-1v-3.84h1Zm-51.9-1h-1v-1.28a5,5,0,0,1,.89-2.66l.81.54a4.08,4.08,0,0,0-.72,2.12Zm3.59-5.53-.48-.85,3.33-1.92.48.85Zm48.31-1.15h-1v-3.84h1ZM194.44,195l-.49-.85,3.33-1.92.49.85Zm6.65-3.84-.48-.85,3.32-1.92.49.85Zm35-1.15h-1v-3.85h1Zm-28.34-2.69-.49-.85,3.33-1.91.48.84Zm6.65-3.84-.48-.84,3.32-1.92.49.84Zm21.69-1.16h-1v-3.84h1Zm-15-2.68-.49-.85,3.33-1.92.48.85Zm6.65-3.84-.49-.85,3.33-1.91.49.84Z" style="fill:#6895C8"></path></g><g id="freepik--frame--inject-2"><path d="M236.09,285.56h-1v-1.48a1.69,1.69,0,0,0,0-.23l-.06-.19,0-.06,0-.08-.06-.13-.19-.24-.07,0a.72.72,0,0,0-.46-.05l-.16-1a1.73,1.73,0,0,1,1,.13l.27.15.07.08a.37.37,0,0,1,.13.11h0l.1.13a.7.7,0,0,1,.11.18,1.17,1.17,0,0,1,.16.36.93.93,0,0,1,.06.18l.07.15,0,.07s0,.08,0,.11,0,.21,0,.32Z" style="fill:#6895C8"></path><path d="M185.11,391.82a1.3,1.3,0,0,1-.37-.05,1,1,0,0,1-.29-.1l-.21-.11a2.33,2.33,0,0,1-.75-.91,3.06,3.06,0,0,1-.28-1.29V388.3h1v1.06a2.14,2.14,0,0,0,.17.85,1.44,1.44,0,0,0,.37.51l.24.11.15,0,.11,1Zm3.72-1.86-.49-.84,3.33-1.92.48.84Zm6.65-3.84-.49-.84,3.33-1.92.49.84Zm-11.29-1.66h-1v-3.84h1Zm17.94-2.18-.48-.84,3.32-1.93.49.84Zm6.65-3.85-.48-.84,3.32-1.92.49.84Zm-24.59-1.66h-1v-3.84h1Zm31.25-2.18-.49-.84,3.33-1.92.48.84Zm6.65-3.84-.49-.85,3.33-1.92.49.84Zm-37.9-1.66h-1v-3.84h1Zm44.55-2.19-.48-.84,3.32-1.92.49.84Zm6.5-4.38-.81-.53a4,4,0,0,0,.68-2.07v-1.35h1v1.35A5,5,0,0,1,235.24,362.52Zm-51.05-1.11h-1v-3.84h1Zm51.9-6.69h-1v-3.84h1Zm-51.9-1h-1v-3.85h1Zm51.9-6.69h-1V343.2h1Zm-51.9-1h-1V342.2h1Zm51.9-6.68h-1v-3.84h1Zm-51.9-1h-1v-3.84h1Zm51.9-6.68h-1v-3.85h1Zm-51.9-1h-1v-3.84h1Zm51.9-6.69h-1v-3.84h1Zm-51.9-1h-1v-3.84h1Zm51.9-6.68h-1v-3.84h1Zm-51.9-1h-1V314a5,5,0,0,1,.89-2.66l.81.54a4.08,4.08,0,0,0-.72,2.12Zm3.59-5.53-.48-.85,3.33-1.92.48.85Zm48.31-1.15h-1v-3.84h1Zm-41.65-2.69-.49-.85,3.33-1.92.49.85Zm6.65-3.84-.48-.85,3.32-1.92.49.85Zm35-1.16h-1V297.1h1Zm-28.34-2.68-.49-.85,3.33-1.92.48.85Zm6.65-3.84-.48-.85,3.32-1.92.49.85Zm21.69-1.16h-1v-3.84h1Zm-15-2.68-.49-.85,3.33-1.92.48.85Zm6.65-3.84-.49-.85,3.33-1.92.49.85Z" style="fill:#6895C8"></path></g></g><g id="freepik--Code--inject-2"><g id="freepik--code-icon--inject-2"><g id="freepik--speech-bubble--inject-2"><path d="M372.88,36.08,324.53,64a3.94,3.94,0,0,0-1.79,3.09v44.82a3.89,3.89,0,0,0,1.8,3.07l3.4,1.93a4,4,0,0,0,3.58,0L379.87,89a3.94,3.94,0,0,0,1.79-3.09V41.06a3.89,3.89,0,0,0-1.8-3.07l-3.4-1.93A4,4,0,0,0,372.88,36.08Z" style="fill:#6895C8"></path><path d="M331.52,116.86a4.09,4.09,0,0,1-3.58,0l-3.4-1.94a3.88,3.88,0,0,1-1.8-3.07V67.06a3.6,3.6,0,0,1,.57-1.82l6.95,4a3.52,3.52,0,0,0-.53,1.75v44.82C329.73,116.87,330.47,117.47,331.52,116.86Z" style="opacity:0.2"></path><g style="opacity:0.2"><path d="M381.63,40.74c-.14-.9-.87-1.22-1.76-.71L331.52,67.92a3.71,3.71,0,0,0-1.26,1.34l-7-4A3.49,3.49,0,0,1,324.53,64l48.35-27.9a4,4,0,0,1,3.58,0l3.4,1.92A3.94,3.94,0,0,1,381.63,40.74Z" style="fill:#fff"></path></g><path d="M379.87,40,331.52,67.92A4,4,0,0,0,329.73,71v44.82c0,1.14.8,1.6,1.79,1L379.87,89a3.94,3.94,0,0,0,1.79-3.09V41.06C381.66,39.92,380.86,39.46,379.87,40Z" style="fill:#6895C8"></path></g><g id="freepik----inject-2"><path d="M334.52,90.25a2.61,2.61,0,0,1,.2-1.1,7.86,7.86,0,0,1,.56-1l10.54-17a.93.93,0,0,1,.18-.2.47.47,0,0,1,.12-.09.3.3,0,0,1,.39,0,.69.69,0,0,1,.16.52v6.57a2.79,2.79,0,0,1-.31,1.38,9.64,9.64,0,0,1-.54.9l-4.61,7.08,4.61,1.8a2.18,2.18,0,0,1,.54.26c.21.13.31.46.31,1v6.57a1.53,1.53,0,0,1-.16.7,1.14,1.14,0,0,1-.39.48l-.12,0a.36.36,0,0,1-.18,0l-10.54-4.87a1.49,1.49,0,0,1-.56-.38,1.35,1.35,0,0,1-.2-.88Z" style="fill:#fff"></path><path d="M357.5,61.36a6.24,6.24,0,0,1,.39-1.06,2,2,0,0,1,.77-.82l3.53-2a.32.32,0,0,1,.41,0,.72.72,0,0,1,.17.53,2.18,2.18,0,0,1,0,.39l-8.91,38a5,5,0,0,1-.37,1,1.94,1.94,0,0,1-.79.86l-3.45,2a.31.31,0,0,1-.41,0,.68.68,0,0,1-.17-.53,2.18,2.18,0,0,1,.05-.39Z" style="fill:#fff"></path><path d="M376.87,67.51a2.61,2.61,0,0,1-.2,1.1,7.28,7.28,0,0,1-.56,1l-10.55,17a.74.74,0,0,1-.17.2.47.47,0,0,1-.12.09.29.29,0,0,1-.39,0,.69.69,0,0,1-.16-.52V79.88a2.75,2.75,0,0,1,.3-1.35c.21-.36.39-.66.54-.88l4.62-7.13-4.62-1.76a2,2,0,0,1-.54-.28q-.3-.21-.3-1V60.89a1.53,1.53,0,0,1,.16-.7,1,1,0,0,1,.39-.47l.12,0a.48.48,0,0,1,.17,0l10.55,4.87a1.49,1.49,0,0,1,.56.38,1.37,1.37,0,0,1,.2.88Z" style="fill:#fff"></path></g></g></g><g id="freepik--Image--inject-2"><g id="freepik--image--inject-2"><path id="freepik--shadow--inject-2" d="M307.68,129.35a1.88,1.88,0,0,0-.94.29L259.1,157.13a4.73,4.73,0,0,0-2.13,3.69v75.32a2.69,2.69,0,0,0,.22,1.08,1.84,1.84,0,0,0,.56.71l.19.1a.55.55,0,0,0,.18.06,1.26,1.26,0,0,0,.27,0h0a1.37,1.37,0,0,0,.68-.21l47.64-27.52a4.73,4.73,0,0,0,2.13-3.69V130.87c0-.09,0-.19,0-.27a1.06,1.06,0,0,0,0-.19s0,0,0,0a.35.35,0,0,0-.05-.18,1,1,0,0,0-.12-.28l-.07-.11-.06-.08-.14-.14h0a.64.64,0,0,0-.18-.1,1.14,1.14,0,0,0-.49-.11Z" style="opacity:0.15"></path><g id="freepik--window--inject-2"><path d="M318.36,133.69a1.88,1.88,0,0,0-.94.29l-47.65,27.49a4.72,4.72,0,0,0-2.13,3.68v75.33a2.53,2.53,0,0,0,.23,1.08,1.82,1.82,0,0,0,.56.71,1.26,1.26,0,0,0,.18.1,1.06,1.06,0,0,0,.19.06l.27,0h0a1.29,1.29,0,0,0,.67-.2l47.65-27.53a4.68,4.68,0,0,0,2.12-3.68V135.2a2.17,2.17,0,0,0,0-.26,1.38,1.38,0,0,0,0-.2.08.08,0,0,0,0,0,1.05,1.05,0,0,0-.05-.19,1,1,0,0,0-.13-.27.26.26,0,0,0-.07-.11.24.24,0,0,0-.06-.08l-.14-.14h0l-.18-.11a1.3,1.3,0,0,0-.49-.1Z" style="fill:#455a64"></path><path d="M318.85,133.79a1.55,1.55,0,0,0-1.44.19l-47.63,27.48a4.29,4.29,0,0,0-1.49,1.58h0l-5.45-3.11a4.17,4.17,0,0,1,1.48-1.55L312,130.89a1.46,1.46,0,0,1,1.54-.13C313.89,131,318.39,133.56,318.85,133.79Z" style="fill:#37474f"></path><path d="M307.48,142.65a3.21,3.21,0,0,0-1.2,2.55c0,1,.54,1.54,1.2,1.15a3.17,3.17,0,0,0,1.2-2.54C308.68,142.79,308.14,142.27,307.48,142.65Z" style="fill:#fafafa"></path><path d="M311.8,140.15a3.19,3.19,0,0,0-1.2,2.55c0,1,.54,1.54,1.2,1.15a3.14,3.14,0,0,0,1.2-2.54C313,140.29,312.47,139.77,311.8,140.15Z" style="fill:#fafafa"></path><path d="M316.13,137.65a3.16,3.16,0,0,0-1.2,2.55c0,1,.53,1.53,1.2,1.15a3.17,3.17,0,0,0,1.2-2.54C317.33,137.79,316.79,137.27,316.13,137.65Z" style="fill:#fafafa"></path><path d="M267.87,241.56a3.08,3.08,0,0,1-.23-1.08V172.1h0v-7a4.36,4.36,0,0,1,.63-2.11l-5.45-3.11a4.43,4.43,0,0,0-.65,2.13V169h0v68.37a2.68,2.68,0,0,0,.24,1.13,1.74,1.74,0,0,0,.65.72s4.89,2.81,5.08,2.93l.27.15A1.93,1.93,0,0,1,267.87,241.56Z" style="fill:#263238"></path></g><path d="M311.4,204.4,275.79,225c-1.56.9-2.83-.06-2.83-2.14V177.16a6.77,6.77,0,0,1,2.83-5.4L311.4,151.2c1.56-.91,2.83.05,2.83,2.13V199A6.79,6.79,0,0,1,311.4,204.4Z" style="fill:#6895C8"></path><polygon points="277.39 213.96 309.8 195.24 301.7 183.35 297.65 194.17 288.61 174.43 277.39 213.96" style="fill:#fafafa"></polygon><ellipse cx="302.33" cy="171.07" rx="5.25" ry="2.97" transform="translate(26.54 382.28) rotate(-66.95)" style="fill:#fafafa"></ellipse></g></g><g id="freepik--Typography--inject-2"><g id="freepik--Type--inject-2"><path id="freepik--shadow--inject-2" d="M307.68,240.38a1.88,1.88,0,0,0-.94.29L259.1,268.16a4.72,4.72,0,0,0-2.13,3.68v75.33a2.69,2.69,0,0,0,.22,1.08,1.92,1.92,0,0,0,.56.71l.19.1.18.06.27,0h0a1.46,1.46,0,0,0,.68-.2l47.64-27.53a4.69,4.69,0,0,0,2.13-3.68V241.89c0-.09,0-.18,0-.26a1.42,1.42,0,0,0,0-.2s0,0,0,0a.41.41,0,0,0-.05-.19.93.93,0,0,0-.12-.27.41.41,0,0,0-.07-.11l-.06-.08-.14-.14h0l-.18-.11a1.13,1.13,0,0,0-.49-.1Z" style="opacity:0.15"></path><g id="freepik--window--inject-2"><path d="M318.36,244.72a2,2,0,0,0-.94.28l-47.65,27.5a4.71,4.71,0,0,0-2.13,3.68v75.33a2.53,2.53,0,0,0,.23,1.08,1.82,1.82,0,0,0,.56.71l.18.09.19.07a1.24,1.24,0,0,0,.27,0h0a1.39,1.39,0,0,0,.67-.2l47.65-27.53a4.7,4.7,0,0,0,2.12-3.68V246.23a2.17,2.17,0,0,0,0-.26,1.2,1.2,0,0,0,0-.2.06.06,0,0,0,0,0,1.05,1.05,0,0,0-.05-.19.84.84,0,0,0-.13-.27.26.26,0,0,0-.07-.11.24.24,0,0,0-.06-.08.62.62,0,0,0-.14-.14h0l-.18-.11a1.13,1.13,0,0,0-.49-.1Z" style="fill:#455a64"></path><path d="M318.85,244.82a1.55,1.55,0,0,0-1.44.19l-47.63,27.48a4.29,4.29,0,0,0-1.49,1.58h0L262.83,271a4.17,4.17,0,0,1,1.48-1.55L312,241.92a1.49,1.49,0,0,1,1.54-.14C313.89,242,318.39,244.58,318.85,244.82Z" style="fill:#37474f"></path><path d="M307.48,253.68a3.19,3.19,0,0,0-1.2,2.55c0,1,.54,1.53,1.2,1.15a3.17,3.17,0,0,0,1.2-2.54C308.68,253.82,308.14,253.3,307.48,253.68Z" style="fill:#fafafa"></path><path d="M311.8,251.18a3.17,3.17,0,0,0-1.2,2.54c0,1,.54,1.54,1.2,1.16a3.14,3.14,0,0,0,1.2-2.54C313,251.32,312.47,250.8,311.8,251.18Z" style="fill:#fafafa"></path><path d="M316.13,248.68a3.14,3.14,0,0,0-1.2,2.54c0,1,.53,1.54,1.2,1.16a3.17,3.17,0,0,0,1.2-2.54C317.33,248.81,316.79,248.3,316.13,248.68Z" style="fill:#fafafa"></path><path d="M267.87,352.59a3.08,3.08,0,0,1-.23-1.08V283.13h0v-6.95a4.33,4.33,0,0,1,.63-2.11L262.83,271a4.43,4.43,0,0,0-.65,2.12V280h0v68.37a2.75,2.75,0,0,0,.24,1.13,1.87,1.87,0,0,0,.65.72s4.89,2.8,5.08,2.92l.27.16A2,2,0,0,1,267.87,352.59Z" style="fill:#263238"></path></g><path d="M311.4,315.42,275.79,336c-1.56.9-2.83-.06-2.83-2.14V288.19a6.77,6.77,0,0,1,2.83-5.4l35.61-20.57c1.56-.9,2.83.06,2.83,2.14V310A6.77,6.77,0,0,1,311.4,315.42Z" style="fill:#6895C8"></path><path d="M309.23,297.46v-7.23c0-3.87-1.13-7.25-5.78-4.57a16.89,16.89,0,0,0-5,4.6l.63,1.95a13.74,13.74,0,0,1,4-3.72c3.11-1.79,3.46.88,3.46,2.48v.4c-5.87,3.35-9.14,7.79-9.14,12.46,0,2.79,1.57,4.64,4.65,2.87a11.92,11.92,0,0,0,4.64-5.56l.1-.05.22,2.3,2.51-1.45A30.94,30.94,0,0,1,309.23,297.46Zm-2.67-.34a5.37,5.37,0,0,1-.16,1.21,8.64,8.64,0,0,1-3.67,5.36c-1.41.81-2.61.42-2.61-1.85,0-3.76,3.43-6.41,6.44-8.07Zm-21.66-7.89-7.19,31.06,2.83-1.64,2.19-9.73,7.5-4.33,2.26,7.16,2.92-1.68-7.22-22.75Zm-1.6,16.65,2.07-9c.41-1.87.75-3.71,1.07-5.49l.06,0c.31,1.37.63,2.79,1.1,4.27l2.07,6.55Z" style="fill:#fafafa"></path></g></g><g id="freepik--Tool--inject-2"><g id="freepik--Design--inject-2"><path id="freepik--shadow--inject-2" d="M203.78,337.9a1.88,1.88,0,0,0-.94.29L155.2,365.68a4.7,4.7,0,0,0-2.13,3.69v75.32a2.66,2.66,0,0,0,.22,1.08,1.84,1.84,0,0,0,.56.71l.19.1a.55.55,0,0,0,.18.06,1.26,1.26,0,0,0,.27,0h0a1.37,1.37,0,0,0,.68-.21L202.84,419a4.73,4.73,0,0,0,2.13-3.69V339.42a2.45,2.45,0,0,0,0-.27.58.58,0,0,0,0-.19s0,0,0,0a.78.78,0,0,0,0-.18,1,1,0,0,0-.12-.28l-.07-.11-.07-.07a.58.58,0,0,0-.13-.14l0,0a1,1,0,0,0-.18-.1,1.14,1.14,0,0,0-.49-.11Z" style="opacity:0.15"></path><g id="freepik--window--inject-2"><path d="M214.46,342.24a1.85,1.85,0,0,0-.94.29L165.87,370a4.72,4.72,0,0,0-2.13,3.68V449a2.53,2.53,0,0,0,.23,1.08,1.9,1.9,0,0,0,.55.71l.19.1.18.06a1.33,1.33,0,0,0,.28,0h0a1.33,1.33,0,0,0,.67-.21l47.65-27.53a4.68,4.68,0,0,0,2.12-3.68V343.76a2.26,2.26,0,0,0,0-.27.71.71,0,0,0,0-.2s0,0,0,0a1.05,1.05,0,0,0-.05-.19,1.11,1.11,0,0,0-.13-.27.34.34,0,0,0-.07-.11.24.24,0,0,0-.06-.08l-.14-.14h0a.81.81,0,0,0-.18-.1,1.14,1.14,0,0,0-.49-.11Z" style="fill:#455a64"></path><path d="M214.94,342.34a1.54,1.54,0,0,0-1.43.19L165.87,370a4.24,4.24,0,0,0-1.48,1.57h0l-5.45-3.11a4.1,4.1,0,0,1,1.48-1.55l47.64-27.49a1.48,1.48,0,0,1,1.55-.13C210,339.54,214.49,342.11,214.94,342.34Z" style="fill:#37474f"></path><path d="M203.58,351.21a3.14,3.14,0,0,0-1.2,2.54c0,1,.53,1.54,1.2,1.15a3.17,3.17,0,0,0,1.2-2.54C204.78,351.34,204.24,350.82,203.58,351.21Z" style="fill:#fafafa"></path><path d="M207.9,348.7a3.21,3.21,0,0,0-1.2,2.55c0,1,.54,1.54,1.2,1.15a3.17,3.17,0,0,0,1.2-2.54C209.1,348.84,208.56,348.32,207.9,348.7Z" style="fill:#fafafa"></path><path d="M212.22,346.2a3.19,3.19,0,0,0-1.2,2.55c0,1,.54,1.53,1.2,1.15a3.15,3.15,0,0,0,1.21-2.54C213.43,346.34,212.89,345.82,212.22,346.2Z" style="fill:#fafafa"></path><path d="M164,450.11a2.65,2.65,0,0,1-.23-1.08V380.66h0v-7a4.36,4.36,0,0,1,.63-2.12l-5.45-3.11a4.46,4.46,0,0,0-.65,2.13v6.91h0V445.9a2.67,2.67,0,0,0,.25,1.12,1.74,1.74,0,0,0,.65.72l5.08,2.93.26.15A1.85,1.85,0,0,1,164,450.11Z" style="fill:#263238"></path></g><path d="M207.5,413l-35.61,20.56c-1.57.9-2.83-.06-2.83-2.14V385.71a6.75,6.75,0,0,1,2.83-5.4l35.61-20.56c1.56-.91,2.83.05,2.83,2.13v45.67A6.77,6.77,0,0,1,207.5,413Z" style="fill:#6895C8"></path><path d="M184.43,385.24h.12l.07,0,10.14-5.85a.93.93,0,0,0,.42-.73v-4.55c0-.21-.2-.27-.41-.16l-10.14,5.86a.89.89,0,0,0-.3.31.92.92,0,0,0-.12.41v4.47C184.2,385.13,184.3,385.24,184.43,385.24Zm.11.83h0Zm4.91,29.4V396.66c-.63.22-1.11-.24-1.11-1.12a3.23,3.23,0,0,1,1.35-2.59c.75-.43,1.35,0,1.35,1a3.37,3.37,0,0,1-1.11,2.42V415.2l6.92-22.52a1,1,0,0,0-.17-.82,16.57,16.57,0,0,1-3.32-9,.29.29,0,0,0-.47-.24l-6.4,3.7a1,1,0,0,0-.46.72,44,44,0,0,1-3.45,13.15,1.21,1.21,0,0,0,0,.88Zm13-6.34a1,1,0,0,0-.95.95.8.8,0,0,0,0,.27l-8.92,5.15c5.45-4.59,9.58-12.44,9.92-19.26a1,1,0,1,0-.35,0c-.4,7.86-5.91,17.11-12.62,21-3.34,1.93-6.47,2.25-8.82.89-2.16-1.24-3.42-3.77-3.61-7.17a.94.94,0,0,0,.73-.92.95.95,0,0,0-1.9,0,.94.94,0,0,0,.81.94c.2,3.52,1.53,6.15,3.79,7.46a6.72,6.72,0,0,0,3.41.88,9.49,9.49,0,0,0,2.88-.48l-9.25,5.35a.8.8,0,0,0-.13-.13l0,0a.9.9,0,0,0-.56-.19.95.95,0,1,0,1,.95.93.93,0,0,0-.05-.29l23.92-13.81.18.18,0,0a1,1,0,0,0,.54.16.95.95,0,1,0,0-1.9Z" style="fill:#fff"></path></g></g><g id="freepik--speech-bubble--inject-2"><g id="freepik--speech-bubble--inject-2"><g id="freepik--speech-bubble--inject-2"><path d="M68.69,143l-4.21-7.92,3.39-9.78v-6l-10.37,6v6L62,139a.65.65,0,0,0,.3.27h0Z" style="fill:#6895C8"></path><path d="M68.69,143l-4.21-7.92,3.39-9.78v-6l-10.37,6v6L62,139a.65.65,0,0,0,.3.27h0Z" style="opacity:0.2"></path><path d="M145.75,42a6.86,6.86,0,0,0-3.11-5.39l-2.53-1.46a6.88,6.88,0,0,0-6.22,0L40.47,89.45a6.86,6.86,0,0,0-3.11,5.38v41.94a6.86,6.86,0,0,0,3.11,5.38L43,143.61a6.82,6.82,0,0,0,6.22,0L64,135.07l4.45,7.7a.66.66,0,0,0,1.2-.11l4.7-13.57,68.28-39.74A6.86,6.86,0,0,0,145.75,84Z" style="fill:#6895C8"></path><path d="M37.36,136.77a6.86,6.86,0,0,0,3.11,5.38L43,143.61a6.92,6.92,0,0,0,5.69.25c-1.47.56-2.58-.27-2.58-2V99.88A6.36,6.36,0,0,1,47,96.82l-8.75-5a6.36,6.36,0,0,0-.91,3.06Z" style="opacity:0.2"></path><path d="M145.65,41.14c-.37-1.32-1.57-1.74-3-.91L49.21,94.5A6.22,6.22,0,0,0,47,96.82l-8.74-5a6.29,6.29,0,0,1,2.19-2.32l93.41-54.27a7,7,0,0,1,6.23,0l2.53,1.47A6.85,6.85,0,0,1,145.65,41.14Z" style="fill:#fff;opacity:0.30000000000000004"></path></g><path d="M70.52,93.62a.45.45,0,0,1,.55,0,.7.7,0,0,1,.24.6v15.93a20.42,20.42,0,0,1-.53,4.66,17.9,17.9,0,0,1-1.57,4.25,16.59,16.59,0,0,1-2.62,3.67,16.1,16.1,0,0,1-3.65,2.86,9.21,9.21,0,0,1-3.65,1.35,3.6,3.6,0,0,1-2.61-.65,4.67,4.67,0,0,1-1.56-2.44,13.9,13.9,0,0,1-.51-4.06V103.85a1.83,1.83,0,0,1,.23-.87,1.51,1.51,0,0,1,.55-.63L57.76,101a.45.45,0,0,1,.55,0,.73.73,0,0,1,.23.6v15.74a8.16,8.16,0,0,0,.32,2.53,2.52,2.52,0,0,0,.91,1.33,1.89,1.89,0,0,0,1.39.24,5.37,5.37,0,0,0,1.78-.7,8.91,8.91,0,0,0,1.79-1.36,7.76,7.76,0,0,0,1.42-1.87,10.08,10.08,0,0,0,.92-2.37,12,12,0,0,0,.33-2.92V96.47a2,2,0,0,1,.23-.88,1.59,1.59,0,0,1,.56-.63Z" style="fill:#fff"></path><path d="M76.49,117.37a.46.46,0,0,1-.55,0,.71.71,0,0,1-.23-.61V91.67a1.83,1.83,0,0,1,.23-.87,1.51,1.51,0,0,1,.55-.63l2.36-1.36a.46.46,0,0,1,.56,0,.73.73,0,0,1,.23.6v25.1a1.89,1.89,0,0,1-.23.87,1.55,1.55,0,0,1-.56.64Z" style="fill:#fff"></path><path d="M92.46,78.77a5.75,5.75,0,0,1,.44-1,2.17,2.17,0,0,1,.85-.85l2.15-1.25a.39.39,0,0,1,.45,0,.58.58,0,0,1,.19.5,2.09,2.09,0,0,1-.05.38l-9.85,37.12a5,5,0,0,1-.41,1,2.3,2.3,0,0,1-.88.9l-2.07,1.19a.38.38,0,0,1-.45,0,.6.6,0,0,1-.19-.49,1.61,1.61,0,0,1,.06-.39Z" style="fill:#fff"></path><path d="M115.28,67.77a.48.48,0,0,1,.56,0,.7.7,0,0,1,.23.6V84.3a20.42,20.42,0,0,1-.53,4.66A18.06,18.06,0,0,1,114,93.21a16.5,16.5,0,0,1-2.62,3.67,16.1,16.1,0,0,1-3.65,2.86,9.11,9.11,0,0,1-3.65,1.35,3.6,3.6,0,0,1-2.61-.65A4.67,4.67,0,0,1,99.88,98a13.9,13.9,0,0,1-.51-4.06V78a2,2,0,0,1,.23-.87,1.46,1.46,0,0,1,.56-.63l2.36-1.37a.46.46,0,0,1,.55,0,.67.67,0,0,1,.23.6V91.48a8.2,8.2,0,0,0,.32,2.53,2.52,2.52,0,0,0,.91,1.33,1.92,1.92,0,0,0,1.4.24,5.64,5.64,0,0,0,1.77-.7,9,9,0,0,0,1.8-1.36,8.2,8.2,0,0,0,1.41-1.87,10,10,0,0,0,.92-2.38,12,12,0,0,0,.33-2.91V70.62a1.85,1.85,0,0,1,.24-.87,1.45,1.45,0,0,1,.55-.63Z" style="fill:#fff"></path><path d="M133.67,84.36c-.39.22-.67.26-.85.1a4.18,4.18,0,0,1-.37-.37l-4.64-5.91-4.6,11.25-.38.8a2,2,0,0,1-.85.87l-2.44,1.42a.48.48,0,0,1-.56,0,.74.74,0,0,1-.23-.61,1.54,1.54,0,0,1,.09-.47l6.67-16.25L119.13,67a.85.85,0,0,1-.09-.38,2,2,0,0,1,.23-.87,1.46,1.46,0,0,1,.56-.63l2.45-1.41c.38-.23.67-.26.84-.1l.38.36,4.4,5.66,4.37-10.72c.08-.18.2-.44.38-.8a2,2,0,0,1,.84-.88l2.45-1.41a.46.46,0,0,1,.56,0,.73.73,0,0,1,.23.6,1.65,1.65,0,0,1-.09.48L130.2,72.64l6.62,8.42a1,1,0,0,1,.08.38,1.77,1.77,0,0,1-.23.87,1.45,1.45,0,0,1-.55.63Z" style="fill:#fff"></path></g></g><g id="freepik--Colors--inject-2"><g id="freepik--colors--inject-2"><path d="M353.15,246.15c1.43.82,3.41.71,5.6-.56a17.49,17.49,0,0,0,7.91-13.71c0-2.52-.89-4.29-2.32-5.12l-5-2.91c-1.44-.83-3.42-.71-5.6.55a17.5,17.5,0,0,0-7.92,13.71c0,2.52.89,4.3,2.32,5.12Z" style="fill:#6895C8"></path><path d="M353.15,246.15c1.43.82,3.41.71,5.6-.56a17.49,17.49,0,0,0,7.91-13.71c0-2.52-.89-4.29-2.32-5.12l-5-2.91c-1.44-.83-3.42-.71-5.6.55a17.5,17.5,0,0,0-7.92,13.71c0,2.52.89,4.3,2.32,5.12Z" style="opacity:0.30000000000000004"></path><path d="M366.66,231.88c0-2.52-.89-4.29-2.32-5.12s-3.41-.71-5.59.55A17.5,17.5,0,0,0,350.83,241c0,2.53.89,4.3,2.32,5.13s3.41.71,5.6-.56A17.49,17.49,0,0,0,366.66,231.88Z" style="fill:#6895C8"></path><path d="M353.15,276.35c1.43.83,3.41.71,5.6-.55a17.5,17.5,0,0,0,7.91-13.71c0-2.52-.89-4.3-2.32-5.13l-5-2.91c-1.44-.83-3.42-.71-5.6.56a17.5,17.5,0,0,0-7.92,13.71c0,2.52.89,4.29,2.32,5.12Z" style="fill:#e0e0e0"></path><path d="M366.66,262.09c0-2.52-.89-4.3-2.32-5.13s-3.41-.7-5.59.56a17.47,17.47,0,0,0-7.92,13.71c0,2.52.89,4.3,2.32,5.12s3.41.71,5.6-.55A17.5,17.5,0,0,0,366.66,262.09Z" style="fill:#f5f5f5"></path><path d="M353.15,306.56c1.43.82,3.41.71,5.6-.56a17.49,17.49,0,0,0,7.91-13.71c0-2.52-.89-4.29-2.32-5.12l-5-2.91c-1.44-.83-3.42-.71-5.6.55a17.5,17.5,0,0,0-7.92,13.71c0,2.52.89,4.3,2.32,5.12Z" style="fill:#263238"></path><path d="M366.66,292.29c0-2.52-.89-4.29-2.32-5.12s-3.41-.71-5.59.55a17.5,17.5,0,0,0-7.92,13.71c0,2.53.89,4.3,2.32,5.13s3.41.71,5.6-.56A17.49,17.49,0,0,0,366.66,292.29Z" style="fill:#455a64"></path><path d="M353.15,215.94c1.43.83,3.41.71,5.6-.55a17.5,17.5,0,0,0,7.91-13.71c0-2.53-.89-4.3-2.32-5.13l-5-2.91c-1.44-.83-3.42-.71-5.6.56a17.49,17.49,0,0,0-7.92,13.7c0,2.53.89,4.3,2.32,5.13Z" style="fill:#6895C8"></path><path d="M366.66,201.68c0-2.53-.89-4.3-2.32-5.13s-3.41-.7-5.59.56a17.47,17.47,0,0,0-7.92,13.71c0,2.52.89,4.3,2.32,5.12s3.41.71,5.6-.55A17.5,17.5,0,0,0,366.66,201.68Z" style="fill:#6895C8"></path><path d="M366.66,201.68c0-2.53-.89-4.3-2.32-5.13s-3.41-.7-5.59.56a17.47,17.47,0,0,0-7.92,13.71c0,2.52.89,4.3,2.32,5.12s3.41.71,5.6-.55A17.5,17.5,0,0,0,366.66,201.68Z" style="fill:#fff;opacity:0.30000000000000004"></path></g></g><g id="freepik--Character--inject-2"><g id="freepik--character--inject-2"><g id="freepik--Arm--inject-2"><path d="M459.19,232.41c-.38,4.08.11,7.67-.2,9.69a45.57,45.57,0,0,1-.8,4.74,11.61,11.61,0,0,1-1.74,3.35,23.2,23.2,0,0,1-1.8,3.95,21,21,0,0,1-3.21,3.41c-.81,1.92-.8,2.12-1.15,2.94a1.5,1.5,0,0,1-.49.75.7.7,0,0,1-.72-.09,1.78,1.78,0,0,1-.65-1.26,8.14,8.14,0,0,1,.61-3.68,31.11,31.11,0,0,0,1.13-5,3.54,3.54,0,0,1-.38.87c-.22.44-.32.92-.52,1.37-.95,2.16-1.9,4.31-2.84,6.47a1.19,1.19,0,0,1-.37.53.71.71,0,0,1-.73,0,1.34,1.34,0,0,1-.46-.59,4.59,4.59,0,0,1,0-2.84,35.77,35.77,0,0,1,1-3.64,26.06,26.06,0,0,0,1.08-3.89,18.24,18.24,0,0,0,.56-5.24c-.16-1.32-1.55.38-1.83.77a14.16,14.16,0,0,1-1.49,1.95,3.62,3.62,0,0,1-2.75,1.13,1,1,0,0,1-.45-.12.83.83,0,0,1-.28-.9,3.36,3.36,0,0,1,.46-.88,1.37,1.37,0,0,0,.13-.2c1.64-2.76,1.93-5.8,3.38-8.26.45-.77,1.28-2.39,1.81-3.54a11.33,11.33,0,0,0,1.61-4.26c.28-2.19-.35-25.52-.35-25.52l-8.17-22.67c-2-9.08-.89-16.67,1.77-20.35,6.51-.69,9.29,2.6,11.79,8.77a123.73,123.73,0,0,1,4.73,12.74,116.14,116.14,0,0,1,4.44,16c.76,3.59,0,6.67-.94,15C460.55,221.18,459.57,228.33,459.19,232.41Z" style="fill:#ffa8a7"></path><path d="M453.07,237.71a9.69,9.69,0,0,0,.29-1.21,1.64,1.64,0,0,0,0-1.05c-.2.19-.2.39-.26.67a8.91,8.91,0,0,1-.32,1.12,11.13,11.13,0,0,1-.91,1.95,5.2,5.2,0,0,1-1,1.25c-.54.5-1.22.84-1.73,1.37a.57.57,0,0,0-.14.25.63.63,0,0,0,.52,0,5.21,5.21,0,0,0,2.64-2.23A9.92,9.92,0,0,0,453.07,237.71Zm-.23,8.5a21.48,21.48,0,0,1-1.91,7.16,7.45,7.45,0,0,0-1.11,2.91c0,.6.32,1.47,1,1.56.11,0,.1-.21,0-.25-1.14-.86-.61-2-.06-3.07a21.79,21.79,0,0,0,1.11-2.58,20.21,20.21,0,0,0,1-5.72C453,246.11,452.85,246.1,452.84,246.21Zm3.37,4.08s-1.29,1.27-1.41,1.41a1.68,1.68,0,0,1-.62.48c-.58.2-.93-.26-1-.78a2.55,2.55,0,0,1,.25-1.25c.2-.39.45-.75.66-1.14a12.22,12.22,0,0,0,1.7-6.39s0,0,0,0a31.45,31.45,0,0,1-1.05,4.2,16.57,16.57,0,0,1-1.06,2.3,4.39,4.39,0,0,0-.74,1.74,2.14,2.14,0,0,0,.25,1.22,1,1,0,0,0,.42.38c.57.28,1.11-.36,1.46-.72s.75-.9,1.11-1.34C456.21,250.37,456.24,250.33,456.21,250.29Z" style="fill:#f28f8f"></path><path d="M440,159.14c8.7-.84,12.29,2.64,15.58,13.7,3.05,10.23,5,16.94,5,16.94a20.7,20.7,0,0,1-7.1,5.58c-5.85,2.72-8.53,2.44-8.53,2.44s-4.84-12.54-5.75-16S435.23,163.13,440,159.14Z" style="fill:#6895C8"></path></g><g id="freepik--Bottom--inject-2"><path d="M408.38,357.09c-.64-.07-.68,1.48-.3,2.23,1.09,2.17,4.2,4.53,8.8,5.64s13.64.07,16.38,0,7.43,1.43,10.15,1.92c4.95.9,8.38-.41,10-2a3.05,3.05,0,0,0,.72-2.34c0-1.88-.17-2.27-.38-2.26Z" style="fill:#263238"></path><path d="M453.36,354.82a23.24,23.24,0,0,1,.3,6.81,5.13,5.13,0,0,1-3.39,2.53,19,19,0,0,1-10-.14,26.21,26.21,0,0,0-7-.94c-2.83.1-9.07.61-11.91.59a19.18,19.18,0,0,1-7.68-1.63c-1.86-.91-4.66-2.89-5.26-4.35-.55-3.41-.16-5.42,1.82-6.53s5-1.36,9.13-1.59c1.22-.07,2.76-.11,3.42-.17,2.47-.22,4.79-.36,6.66-.44a10.7,10.7,0,0,0,4.64-.92,3.15,3.15,0,0,0,1.55-1.44c.4-.86-.11-2.13.65-2.19,0,0,14.45,2.65,15.58,2.79C453.14,347.36,452.25,349.2,453.36,354.82Z" style="fill:#37474f"></path><path d="M421.68,349.25a3.77,3.77,0,0,0-1.05,1.21,7,7,0,0,0-.68,1.61c-.2.7.68.86,1,.05a9.1,9.1,0,0,1,1-1.92,2.23,2.23,0,0,1,1.23-.84l.71-.06C423.79,348.77,422.23,348.91,421.68,349.25Z" style="fill:#fafafa"></path><path d="M428,348.64a1.69,1.69,0,0,0-1.32.38,3.29,3.29,0,0,0-1,1.45,12.61,12.61,0,0,0-.6,2.1c-.06.46,1,.46,1.14,0a19.72,19.72,0,0,1,.59-1.91c.13-.31.71-1.5,1.46-1.61h.33c0-.16-.2-.27-.35-.31Z" style="fill:#fafafa"></path><path d="M431.7,348.61a1.42,1.42,0,0,0-.83.45,3.93,3.93,0,0,0-.6,1.1,7.43,7.43,0,0,0-.37,2.25c0,.59,1.05.46,1.1.06a5.72,5.72,0,0,1,.76-3,2.86,2.86,0,0,1,.95-1c0-.1-.19-.12-.29-.1A4.38,4.38,0,0,0,431.7,348.61Z" style="fill:#fafafa"></path><path d="M451.77,331.28s0,12.91-.07,15.9c0,.95-1.76,1.49-2.65,2a11.39,11.39,0,0,0-3,2.1c-2.12,2.54-3.84,3.25-5.62-.7a1.43,1.43,0,0,0-2-.82,6.47,6.47,0,0,1-2.38.56c-.13-.07-.08-.27,0-.4a4,4,0,0,0,.56-3.29c-.88-5.2-1.58-10.43-2.35-15.65Z" style="fill:#ffa8a7"></path><path d="M374.59,373.35c-.63-.06-.65,1.49-.25,2.24,1.13,2.14,4.29,4.44,8.9,5.46s13.65-.2,16.38-.3,7.46,1.29,10.19,1.73c5,.8,8.37-.58,10-2.18a3,3,0,0,0,.68-2.34c0-1.89-.21-2.27-.42-2.25Z" style="fill:#263238"></path><path d="M419.52,370.2A23.62,23.62,0,0,1,420,377a5.19,5.19,0,0,1-3.35,2.59,19,19,0,0,1-10,.06,26.1,26.1,0,0,0-7.05-.81c-2.82.16-9.06.79-11.89.83a19.26,19.26,0,0,1-7.71-1.49c-1.88-.87-4.71-2.8-5.34-4.25-.62-3.39-.27-5.41,1.68-6.56s5-1.46,9.1-1.76c1.23-.1,2.77-.17,3.42-.24,2.47-.27,4.78-.45,6.65-.57a10.63,10.63,0,0,0,4.62-1,3.11,3.11,0,0,0,1.52-1.47c.39-.87.38-2.14,1.14-2.21,0,0,14,2.37,15.11,2.49C419.16,362.74,418.31,364.61,419.52,370.2Z" style="fill:#37474f"></path><path d="M387.74,365.25a3.77,3.77,0,0,0-1,1.23,6.67,6.67,0,0,0-.64,1.62c-.19.71.69.85,1,0a9.34,9.34,0,0,1,1-1.94,2.19,2.19,0,0,1,1.21-.86l.71-.07C389.84,364.73,388.28,364.89,387.74,365.25Z" style="fill:#fafafa"></path><path d="M394,364.52a1.69,1.69,0,0,0-1.31.4,3.29,3.29,0,0,0-1,1.47,13.14,13.14,0,0,0-.56,2.11c-.05.46,1,.45,1.14-.05a18.8,18.8,0,0,1,.55-1.93c.13-.31.68-1.52,1.43-1.64l.33,0c0-.16-.21-.27-.35-.3Z" style="fill:#fafafa"></path><path d="M397.74,364.41a1.48,1.48,0,0,0-.82.47,3.89,3.89,0,0,0-.57,1.11,7.36,7.36,0,0,0-.33,2.26c0,.59,1.06.43,1.09,0a5.88,5.88,0,0,1,.71-3,2.81,2.81,0,0,1,.93-1c0-.11-.19-.12-.29-.1A6.2,6.2,0,0,0,397.74,364.41Z" style="fill:#fafafa"></path><path d="M419.27,347.56s-1.21,12.85-1.52,15.82c-.09.95-1.89,1.33-2.81,1.73a11.35,11.35,0,0,0-3.18,1.83c-2.35,2.33-4.12,2.88-5.53-1.21a1.43,1.43,0,0,0-1.9-1,6.56,6.56,0,0,1-2.43.34c-.12-.08,0-.27,0-.4a4,4,0,0,0,.85-3.22c-.4-5.26-.62-10.54-.92-15.8Z" style="fill:#ffa8a7"></path><path d="M452.49,295.93a61.77,61.77,0,0,0-2.56-10.83s1.56-22.53,2.23-39.54a122.39,122.39,0,0,0-1.77-25.6l-52.65.75s-.35,29.49-.24,47.5c.11,17.36.36,22.1,1.14,33.12.41,5.87,1.21,16.85,1.69,26.58.53,10.53,1.79,25.64,1.79,25.64a18.89,18.89,0,0,0,7.3,2c7.16.1,8.42-.94,9.45-1.67,0,0,.93-7.74,2.92-22.26a164.8,164.8,0,0,0,1.88-21.12c0-3.47.26-6.07-.35-10.14l1.88-20.7c.43,2.92.91,5.84,1.5,9.44,1,5.8,2.8,16.66,4.2,26.29,1.51,10.44,4.19,25.36,4.19,25.36s4.78,1.54,8.34,1.26c7.13-.58,8-2.28,8.91-3.11,0,0,.32-7.35.94-22A136.42,136.42,0,0,0,452.49,295.93Z" style="fill:#455a64"></path><path d="M431.47,254.56c11.3-4.05,12.34-10,12.34-10-8,6.63-14.58,7.13-14.58,7.13l-4,28L428,297.07l-.56-17.41Z" style="opacity:0.2"></path></g><g id="freepik--Top--inject-2"><path d="M445,160.2c4.45,2.18,7.87,8.89,7.26,18-.56,8.38-1.08,13.58-2.18,22.43a69,69,0,0,0-.23,12.84c.39,7.11,1.57,14.8,1.57,14.8s-5.82,9.15-21.68,10.56c-19.16,1.69-32.23-3.15-32.23-3.15s-.38-26.3-.38-32.5c0-15.67-.27-21.48,1.38-26.56,1.22-2.8,7.17-15.42,10.45-14.46,4,1.19,8.9-.1,12.89-.6C436.18,159.71,440.32,157.93,445,160.2Z" style="fill:#37474f"></path><path d="M416.9,155.62l.36,6.93c4.32.73,14.21.95,16.53-.77l-.31-7.53Z" style="fill:#ffa8a7"></path><path d="M409.39,133.39a59.52,59.52,0,0,0-4.44,7.09l2.78,1.78Z" style="fill:#f28f8f"></path><path d="M418.18,120c-5.38-.34-7.69,4.84-9.74,16.38-2,11.22-1.09,15.7.17,17.42,3.09,2.27,6.44,3,11.22,2.39,3.64-.47,12.92-2,17.43-7.14,5.31-6.05,7.85-16,3.7-20.35C435.12,122.52,421,120.15,418.18,120Z" style="fill:#ffa8a7"></path><path d="M411.1,146.26a.39.39,0,0,0-.18.06s-.07.08-.11.11a1.21,1.21,0,0,1-.24.21,3.13,3.13,0,0,1-.58.36,4.13,4.13,0,0,1-1.21.3.09.09,0,0,0-.06.06s0,.08,0,.12.2.09.3.09a1.3,1.3,0,0,0,.34,0,3,3,0,0,0,.71-.18,2.56,2.56,0,0,0,.63-.34,2,2,0,0,0,.27-.22l.13-.12a.46.46,0,0,0,.1-.27S411.17,146.24,411.1,146.26Z" style="fill:#b16668"></path><path d="M408.61,153.77c.71,1,5.39,3.12,8.36,3.18l-.09-2.33A29.88,29.88,0,0,1,408.61,153.77Z" style="fill:#f28f8f"></path><path d="M416.75,127.93a4.36,4.36,0,0,0,.33,2.67,5.21,5.21,0,0,0,2.64,2.54,10.54,10.54,0,0,0-1.82,4.54,2.62,2.62,0,0,0,.11,1.52,1,1,0,0,0,1.73.21,12.57,12.57,0,0,1,1.78-2.26,4.72,4.72,0,0,1,3.13-1.22c4.33.14,3.41,6.93,1.38,9-3.33,3.39-5.3.68-5.3.68s-2.24,5.61,1.53,8.66c0,0,6.38,2.43,11.23.69,3.51-4.13,7.5-7.64,9.83-11.16,5.5-8.35,4.7-15.75.84-17.87,0-3.69-3-6.39-6.08-8-4.15-2.17-8.58-1.33-13-2a15,15,0,0,1-6.37-2.47c-.85-.58-1.88-1.28-2.8-.82a2,2,0,0,0-.82.87,4.73,4.73,0,0,0-.23,4.15c-1.06-1-3.18-.9-4.49-.12-1.89,1.13-2.38,2.7-2.1,5C408.41,124.07,410.56,128.87,416.75,127.93Z" style="fill:#263238"></path><path d="M443.8,126.81l4.4-1.83a2.38,2.38,0,1,0-4.4,1.83Z" style="fill:#263238"></path><g id="freepik--arm--inject-2"><path d="M364.1,113.61c-.57-3.42-1-5-1.71-6.13s-2.65-5.67-3.6-7.19c-.61-1-2.15,0-2,1.84a37.85,37.85,0,0,0,1.75,5.6,22.11,22.11,0,0,1,.13,5.15Z" style="fill:#f28f8f"></path><path d="M405.75,162.07l-27.6-14.5s-12.08-16.93-13-18.94-.41-9.57-.5-11.91c-.13-3.19-1.16-3.76-2.13-4.45-3.16-2.23-4-2.58-4.93-2.77a1.74,1.74,0,0,0-1.57.56c-.82-.62-1.9-1.69-3.2-.62a4.83,4.83,0,0,0-1,.92,1.07,1.07,0,0,0-.74-.18c-1.29.12-2.59,3.57-2.5,4.81a3.34,3.34,0,0,0,1.67,2.28c.84.61,1.22-.48,1.22-.48l1,1.06c.72,3.75-2.2,7,.1,10.58a28.89,28.89,0,0,1,3,4.18,281.65,281.65,0,0,0,12.74,26.73c1.22,2,3.15,3.36,9.93,8.24l15.33,11Z" style="fill:#ffa8a7"></path><path d="M356,109.75l3.92,2.49-3.42-2.88A2.16,2.16,0,0,0,356,109.75Z" style="fill:#f28f8f"></path><path d="M351.86,110.06l4.25,3.13-3.83-3.58A2.6,2.6,0,0,0,351.86,110.06Z" style="fill:#f28f8f"></path><path d="M350.76,112.2a1.66,1.66,0,0,0,.09.93,3.51,3.51,0,0,0,.43.84v-.09c-.09.3-.17.59-.25.89l.18,0a1.06,1.06,0,0,0-.74-.43,1.4,1.4,0,0,0-.81.17,1.73,1.73,0,0,1,.78,0,1.08,1.08,0,0,1,.61.4l.11.17.06-.2c.09-.29.17-.59.25-.89v0l0,0a4.7,4.7,0,0,1-.46-.78A2,2,0,0,1,350.76,112.2Z" style="fill:#f28f8f"></path><path d="M351.3,113.65a15.21,15.21,0,0,0,1.28,1.4,2.09,2.09,0,0,0-.23,1.18,11,11,0,0,0,.14,1.32l-1-1.06a2.34,2.34,0,0,0-.57-1.79Z" style="fill:#f28f8f"></path><path d="M409.22,162.15c-2.15-1.58-6.88-2.83-10.85-4.56-1.55-.67-7.53-3.21-12.38-5.9-3.85,4-6.9,7.44-8.56,13.19a21.58,21.58,0,0,0-.58,2.57c5.34,4,12,8.91,15.09,12.39,5.74,6.43,5.31,7.13,5.82,8.44s6.68,2.69,10.2-5.88S410.85,165.77,409.22,162.15Z" style="fill:#6895C8"></path></g></g></g></g></svg>
